<svg xmlns="http://www.w3.org/2000/svg" xmlns:xlink="http://www.w3.org/1999/xlink" viewBox="0 0 1200 1200" width="1200" height="1200" preserveAspectRatio="xMidYMid meet" style="width: 100%; height: 100%; transform: translate3d(0px, 0px, 0px); content-visibility: visible;" id="Web Address registration"><defs><clipPath id="__lottie_element_1745"><rect width="1200" height="1200" x="0" y="0"/></clipPath><clipPath id="__lottie_element_1747"><path d="M0,0 L1200,0 L1200,1200 L0,1200z"/></clipPath><clipPath id="__lottie_element_1751"><path d="M0,0 L1200,0 L1200,1200 L0,1200z"/></clipPath></defs><g clip-path="url(#__lottie_element_1745)"><g clip-path="url(#__lottie_element_1747)" transform="matrix(1,0,0,1,0,80)" opacity="1" style="display: block;"><g transform="matrix(0.9978794455528259,0.06508881598711014,-0.06508881598711014,0.9978794455528259,-305.8594970703125,17.6959228515625)" opacity="1" style="display: block;"><g opacity="1" transform="matrix(1,0,0,1,607.593994140625,664.3699951171875)"><path fill="rgb(255,129,44)" fill-opacity="1" d=" M-9.821999549865723,-59.25899887084961 C-9.821999549865723,-59.25899887084961 -53.22600173950195,4.420000076293945 35.676998138427734,59.2599983215332 C53.22700119018555,14.95300006866455 40.01599884033203,-52.055999755859375 -9.821999549865723,-59.25899887084961z"/><path stroke-linecap="round" stroke-linejoin="round" fill-opacity="0" stroke="rgb(0,0,0)" stroke-opacity="1" stroke-width="2" d=" M-9.821999549865723,-59.25899887084961 C-9.821999549865723,-59.25899887084961 -53.22600173950195,4.420000076293945 35.676998138427734,59.2599983215332 C53.22700119018555,14.95300006866455 40.01599884033203,-52.055999755859375 -9.821999549865723,-59.25899887084961z"/></g><g opacity="1" transform="matrix(1,0,0,1,579.030029296875,737.3930053710938)"><path fill="rgb(255,129,44)" fill-opacity="1" d=" M-54.81100082397461,3.5360000133514404 C-54.81100082397461,3.5360000133514404 -11.670999526977539,-44.18299865722656 54.8120002746582,5.565999984741211 C28.739999771118164,31.274999618530273 -15.781999588012695,44.18299865722656 -54.81100082397461,3.5360000133514404z"/><path stroke-linecap="round" stroke-linejoin="round" fill-opacity="0" stroke="rgb(0,0,0)" stroke-opacity="1" stroke-width="2" d=" M-54.81100082397461,3.5360000133514404 C-54.81100082397461,3.5360000133514404 -11.670999526977539,-44.18299865722656 54.8120002746582,5.565999984741211 C28.739999771118164,31.274999618530273 -15.781999588012695,44.18299865722656 -54.81100082397461,3.5360000133514404z"/></g><g opacity="1" transform="matrix(1,0,0,1,637.0540161132812,707.4349975585938)"><path stroke-linecap="round" stroke-linejoin="round" fill-opacity="0" stroke="rgb(26,26,26)" stroke-opacity="1" stroke-width="2" d=" M-39.28200149536133,-102.32499694824219 C-39.28200149536133,-102.32499694824219 39.28300094604492,102.32499694824219 39.28300094604492,102.32499694824219"/></g><g opacity="1" transform="matrix(1,0,0,1,690.218017578125,693.8330078125)"><path fill="rgb(255,129,44)" fill-opacity="1" d=" M-27.599000930786133,34.792999267578125 C-27.599000930786133,34.792999267578125 -45.96799850463867,-21.500999450683594 45.0890007019043,-46.81399917602539 C45.96799850463867,-3.5409998893737793 14.782999992370605,46.81399917602539 -27.599000930786133,34.792999267578125z"/><path stroke-linecap="round" stroke-linejoin="round" fill-opacity="0" stroke="rgb(0,0,0)" stroke-opacity="1" stroke-width="2" d=" M-27.599000930786133,34.792999267578125 C-27.599000930786133,34.792999267578125 -45.96799850463867,-21.500999450683594 45.0890007019043,-46.81399917602539 C45.96799850463867,-3.5409998893737793 14.782999992370605,46.81399917602539 -27.599000930786133,34.792999267578125z"/></g><g opacity="1" transform="matrix(1,0,0,1,586.9920043945312,742.0289916992188)"><path stroke-linecap="round" stroke-linejoin="round" fill-opacity="0" stroke="rgb(26,26,26)" stroke-opacity="1" stroke-width="2" d=" M62.77299880981445,1.0989999771118164 C62.77299880981445,1.0989999771118164 -62.77299880981445,-1.0989999771118164 -62.77299880981445,-1.0989999771118164"/></g><g opacity="1" transform="matrix(1,0,0,1,692.5360107421875,695.073974609375)"><path stroke-linecap="round" stroke-linejoin="round" fill-opacity="0" stroke="rgb(26,26,26)" stroke-opacity="1" stroke-width="2" d=" M42.770999908447266,-48.05500030517578 C41.59000015258789,-47.15399932861328 -28.64299964904785,33.60499954223633 -42.770999908447266,48.05500030517578"/></g></g><g transform="matrix(1,0,0,1,-360,60)" opacity="1" style="display: block;"><g opacity="1" transform="matrix(1,0,0,1,1062.06494140625,668.010009765625)"><path stroke-linecap="round" stroke-linejoin="round" fill-opacity="0" stroke="rgb(26,26,26)" stroke-opacity="1" stroke-width="2" d=" M-340.9209899902344,118.82499694824219 C-335.17999267578125,65.6240005493164 -301.3909912109375,19.66200065612793 -252.79600524902344,-0.7110000252723694 C-199.9770050048828,-22.854000091552734 -138.13800048828125,-11.213000297546387 -95.74099731445312,28.954999923706055 C-14.37399959564209,-46.60100173950195 62.10200119018555,-83.23799896240234 111.9209976196289,-101.92400360107422 C184.9029998779297,-129.29600524902344 216.12100219726562,-123.93399810791016 236.6929931640625,-111.52200317382812 C238.5489959716797,-110.40299987792969 281.0979919433594,-83.81199645996094 277.7019958496094,-40.84700012207031 C275.65899658203125,-14.996999740600586 258.15399169921875,1.9930000305175781 252.3990020751953,7.142000198364258 C292.2829895019531,5.401000022888184 326.02801513671875,21.9060001373291 332.6709899902344,43.78799819946289 C340.9209899902344,70.96099853515625 310.84600830078125,117.84400177001953 249.781005859375,129.29600524902344 C52.880001068115234,125.80500030517578 -144.02099609375,122.31500244140625 -340.9209899902344,118.82499694824219z"/></g><g opacity="1" transform="matrix(1,0,0,1,946.72900390625,842.7210083007812)"><path fill="rgb(255,255,255)" fill-opacity="1" d=" M-131.92599487304688,-62.409000396728516 C-267.43701171875,-72.21099853515625 -415.65899658203125,-76.12999725341797 -422.55499267578125,-43.85200119018555 C-426.6759948730469,-24.56800079345703 -379.13299560546875,1.9559999704360962 -355.65399169921875,12.753000259399414 C-257.96600341796875,57.672000885009766 -206.17300415039062,0.7760000228881836 -92.68399810791016,30.33099937438965 C-13.182000160217285,51.0359992980957 -12.45199966430664,46.297000885009766 56.422000885009766,52.30699920654297 C124.66899871826172,58.262001037597656 176.13999938964844,27.492000579833984 216.2050018310547,0.6800000071525574 C229.01699829101562,9.673999786376953 278.6050109863281,76.12999725341797 329.4729919433594,70.48699951171875 C359.2030029296875,67.19000244140625 420.260009765625,50.459999084472656 423.87298583984375,12.121999740600586 C426.6759948730469,-17.611000061035156 394.343994140625,-54.138999938964844 342.9859924316406,-64.96600341796875 C184.6820068359375,-64.11299896240234 26.37700080871582,-63.26100158691406 -131.92599487304688,-62.409000396728516z"/><path stroke-linecap="round" stroke-linejoin="round" fill-opacity="0" stroke="rgb(26,26,26)" stroke-opacity="1" stroke-width="2" d=" M-131.92599487304688,-62.409000396728516 C-267.43701171875,-72.21099853515625 -415.65899658203125,-76.12999725341797 -422.55499267578125,-43.85200119018555 C-426.6759948730469,-24.56800079345703 -379.13299560546875,1.9559999704360962 -355.65399169921875,12.753000259399414 C-257.96600341796875,57.672000885009766 -206.17300415039062,0.7760000228881836 -92.68399810791016,30.33099937438965 C-13.182000160217285,51.0359992980957 -12.45199966430664,46.297000885009766 56.422000885009766,52.30699920654297 C124.66899871826172,58.262001037597656 176.13999938964844,27.492000579833984 216.2050018310547,0.6800000071525574 C229.01699829101562,9.673999786376953 278.6050109863281,76.12999725341797 329.4729919433594,70.48699951171875 C359.2030029296875,67.19000244140625 420.260009765625,50.459999084472656 423.87298583984375,12.121999740600586 C426.6759948730469,-17.611000061035156 394.343994140625,-54.138999938964844 342.9859924316406,-64.96600341796875 C184.6820068359375,-64.11299896240234 26.37700080871582,-63.26100158691406 -131.92599487304688,-62.409000396728516z"/></g><g opacity="1" transform="matrix(1,0,0,1,1197.6910400390625,564.760009765625)"><path fill="rgb(28,3,17)" fill-opacity="1" d=" M-34.75600051879883,25.756999969482422 C-34.75600051879883,25.756999969482422 -21.523000717163086,-20.92300033569336 29.520000457763672,-26.304000854492188 C29.520000457763672,-26.304000854492188 34.75600051879883,6.3460001945495605 8.579000473022461,26.304000854492188 C-28.940000534057617,25.31999969482422 -34.75600051879883,25.756999969482422 -34.75600051879883,25.756999969482422z"/><path stroke-linecap="round" stroke-linejoin="round" fill-opacity="0" stroke="rgb(26,26,26)" stroke-opacity="1" stroke-width="1" d=" M-34.75600051879883,25.756999969482422 C-34.75600051879883,25.756999969482422 -21.523000717163086,-20.92300033569336 29.520000457763672,-26.304000854492188 C29.520000457763672,-26.304000854492188 34.75600051879883,6.3460001945495605 8.579000473022461,26.304000854492188 C-28.940000534057617,25.31999969482422 -34.75600051879883,25.756999969482422 -34.75600051879883,25.756999969482422z"/></g><g opacity="1" transform="matrix(1,0,0,1,1202.6929931640625,564.1229858398438)"><path stroke-linecap="round" stroke-linejoin="round" fill-opacity="0" stroke="rgb(255,255,255)" stroke-opacity="1" stroke-width="2" d=" M21.618999481201172,-25.66699981689453 C21.618999481201172,-25.66699981689453 -3.4790000915527344,15.342000007629395 -21.618999481201172,25.66699981689453"/></g><g opacity="1" transform="matrix(1,0,0,1,1011.6959838867188,689.0460205078125)"><path fill="rgb(28,3,17)" fill-opacity="1" d=" M-259.1409912109375,-103.87300109863281 C-259.1409912109375,-103.87300109863281 259.1409912109375,-103.87300109863281 259.1409912109375,-103.87300109863281 C259.1409912109375,-103.87300109863281 259.1409912109375,103.87300109863281 259.1409912109375,103.87300109863281 C259.1409912109375,103.87300109863281 -259.1409912109375,103.87300109863281 -259.1409912109375,103.87300109863281 C-259.1409912109375,103.87300109863281 -259.1409912109375,-103.87300109863281 -259.1409912109375,-103.87300109863281z"/><path stroke-linecap="round" stroke-linejoin="round" fill-opacity="0" stroke="rgb(26,26,26)" stroke-opacity="1" stroke-width="1" d=" M-259.1409912109375,-103.87300109863281 C-259.1409912109375,-103.87300109863281 259.1409912109375,-103.87300109863281 259.1409912109375,-103.87300109863281 C259.1409912109375,-103.87300109863281 259.1409912109375,103.87300109863281 259.1409912109375,103.87300109863281 C259.1409912109375,103.87300109863281 -259.1409912109375,103.87300109863281 -259.1409912109375,103.87300109863281 C-259.1409912109375,103.87300109863281 -259.1409912109375,-103.87300109863281 -259.1409912109375,-103.87300109863281z"/></g><g opacity="1" transform="matrix(1,0,0,1,1020.77099609375,689.0460205078125)"><path fill="rgb(255,255,255)" fill-opacity="1" d=" M-249.47900390625,-103.87300109863281 C-249.47900390625,-103.87300109863281 249.47900390625,-103.87300109863281 249.47900390625,-103.87300109863281 C249.47900390625,-103.87300109863281 249.47900390625,103.87300109863281 249.47900390625,103.87300109863281 C249.47900390625,103.87300109863281 -249.47900390625,103.87300109863281 -249.47900390625,103.87300109863281 C-249.47900390625,103.87300109863281 -249.47900390625,-103.87300109863281 -249.47900390625,-103.87300109863281z"/><path stroke-linecap="round" stroke-linejoin="round" fill-opacity="0" stroke="rgb(26,26,26)" stroke-opacity="1" stroke-width="2" d=" M-249.47900390625,-103.87300109863281 C-249.47900390625,-103.87300109863281 249.47900390625,-103.87300109863281 249.47900390625,-103.87300109863281 C249.47900390625,-103.87300109863281 249.47900390625,103.87300109863281 249.47900390625,103.87300109863281 C249.47900390625,103.87300109863281 -249.47900390625,103.87300109863281 -249.47900390625,103.87300109863281 C-249.47900390625,103.87300109863281 -249.47900390625,-103.87300109863281 -249.47900390625,-103.87300109863281z"/></g><g opacity="1" transform="matrix(1,0,0,1,1322.56201171875,671.8150024414062)"><path fill="rgb(28,3,17)" fill-opacity="1" d=" M27.983999252319336,4.086999893188477 C25.72599983215332,19.542999267578125 11.368000030517578,30.242000579833984 -4.086999893188477,27.985000610351562 C-19.541000366210938,25.72800064086914 -30.240999221801758,11.369000434875488 -27.982999801635742,-4.086999893188477 C-25.72599983215332,-19.54199981689453 -11.368000030517578,-30.242000579833984 4.0879998207092285,-27.983999252319336 C19.542999267578125,-25.726999282836914 30.240999221801758,-11.368000030517578 27.983999252319336,4.086999893188477z"/><path stroke-linecap="round" stroke-linejoin="round" fill-opacity="0" stroke="rgb(26,26,26)" stroke-opacity="1" stroke-width="1" d=" M27.983999252319336,4.086999893188477 C25.72599983215332,19.542999267578125 11.368000030517578,30.242000579833984 -4.086999893188477,27.985000610351562 C-19.541000366210938,25.72800064086914 -30.240999221801758,11.369000434875488 -27.982999801635742,-4.086999893188477 C-25.72599983215332,-19.54199981689453 -11.368000030517578,-30.242000579833984 4.0879998207092285,-27.983999252319336 C19.542999267578125,-25.726999282836914 30.240999221801758,-11.368000030517578 27.983999252319336,4.086999893188477z"/></g><g opacity="1" transform="matrix(1,0,0,1,649.7659912109375,600.8800048828125)"><path fill="rgb(255,255,255)" fill-opacity="1" d=" M18.048999786376953,0 C18.048999786376953,9.968999862670898 9.968000411987305,18.051000595092773 0,18.051000595092773 C-9.968999862670898,18.051000595092773 -18.048999786376953,9.968999862670898 -18.048999786376953,0 C-18.048999786376953,-9.968999862670898 -9.968999862670898,-18.049999237060547 0,-18.049999237060547 C9.968000411987305,-18.049999237060547 18.048999786376953,-9.968999862670898 18.048999786376953,0z"/><path stroke-linecap="round" stroke-linejoin="round" fill-opacity="0" stroke="rgb(26,26,26)" stroke-opacity="1" stroke-width="2" d=" M18.048999786376953,0 C18.048999786376953,9.968999862670898 9.968000411987305,18.051000595092773 0,18.051000595092773 C-9.968999862670898,18.051000595092773 -18.048999786376953,9.968999862670898 -18.048999786376953,0 C-18.048999786376953,-9.968999862670898 -9.968999862670898,-18.049999237060547 0,-18.049999237060547 C9.968000411987305,-18.049999237060547 18.048999786376953,-9.968999862670898 18.048999786376953,0z"/></g><g opacity="1" transform="matrix(1,0,0,1,650.6500244140625,545.718017578125)"><path fill="rgb(28,3,17)" fill-opacity="1" d=" M9.024999618530273,0 C9.024999618530273,4.984000205993652 4.982999801635742,9.024999618530273 0,9.024999618530273 C-4.985000133514404,9.024999618530273 -9.02400016784668,4.984000205993652 -9.02400016784668,0 C-9.02400016784668,-4.984000205993652 -4.985000133514404,-9.024999618530273 0,-9.024999618530273 C4.982999801635742,-9.024999618530273 9.024999618530273,-4.984000205993652 9.024999618530273,0z"/><path stroke-linecap="round" stroke-linejoin="round" fill-opacity="0" stroke="rgb(26,26,26)" stroke-opacity="1" stroke-width="1" d=" M9.024999618530273,0 C9.024999618530273,4.984000205993652 4.982999801635742,9.024999618530273 0,9.024999618530273 C-4.985000133514404,9.024999618530273 -9.02400016784668,4.984000205993652 -9.02400016784668,0 C-9.02400016784668,-4.984000205993652 -4.985000133514404,-9.024999618530273 0,-9.024999618530273 C4.982999801635742,-9.024999618530273 9.024999618530273,-4.984000205993652 9.024999618530273,0z"/></g><g opacity="1" transform="matrix(1,0,0,1,1157.3360595703125,549.9990234375)"><path fill="rgb(255,255,255)" fill-opacity="1" d=" M-43.69900131225586,35.391998291015625 C-43.69900131225586,35.391998291015625 -19.12299919128418,-26.66699981689453 39.33599853515625,-35.393001556396484 C43.69900131225586,-11.835000038146973 21.01300048828125,35.17300033569336 21.01300048828125,35.17300033569336 C21.01300048828125,35.17300033569336 -43.69900131225586,35.391998291015625 -43.69900131225586,35.391998291015625z"/><path stroke-linecap="round" stroke-linejoin="round" fill-opacity="0" stroke="rgb(26,26,26)" stroke-opacity="1" stroke-width="2" d=" M-43.69900131225586,35.391998291015625 C-43.69900131225586,35.391998291015625 -19.12299919128418,-26.66699981689453 39.33599853515625,-35.393001556396484 C43.69900131225586,-11.835000038146973 21.01300048828125,35.17300033569336 21.01300048828125,35.17300033569336 C21.01300048828125,35.17300033569336 -43.69900131225586,35.391998291015625 -43.69900131225586,35.391998291015625z"/></g><g opacity="1" transform="matrix(1,0,0,1,1171.8050537109375,549.8900146484375)"><path fill="rgb(255,255,255)" fill-opacity="1" d=" M24.865999221801758,-35.28300094604492 C6.061999797821045,-19.448999404907227 -17.013999938964844,6.98199987411499 -24.867000579833984,35.28300094604492"/><path stroke-linecap="round" stroke-linejoin="round" fill-opacity="0" stroke="rgb(26,26,26)" stroke-opacity="1" stroke-width="2" d=" M24.865999221801758,-35.28300094604492 C6.061999797821045,-19.448999404907227 -17.013999938964844,6.98199987411499 -24.867000579833984,35.28300094604492"/></g><g opacity="1" transform="matrix(1,0,0,1,1104.4739990234375,565.4130249023438)"><path fill="rgb(255,129,44)" fill-opacity="1" d=" M28.465999603271484,19.979000091552734 C28.465999603271484,19.979000091552734 -28.46500015258789,19.979000091552734 -28.46500015258789,19.979000091552734 C-28.46500015258789,19.979000091552734 -28.46500015258789,-19.979000091552734 -28.46500015258789,-19.979000091552734 C-28.46500015258789,-19.979000091552734 28.465999603271484,-19.979000091552734 28.465999603271484,-19.979000091552734 C28.465999603271484,-19.979000091552734 28.465999603271484,19.979000091552734 28.465999603271484,19.979000091552734z"/><path stroke-linecap="round" stroke-linejoin="round" fill-opacity="0" stroke="rgb(0,0,0)" stroke-opacity="1" stroke-width="2" d=" M28.465999603271484,19.979000091552734 C28.465999603271484,19.979000091552734 -28.46500015258789,19.979000091552734 -28.46500015258789,19.979000091552734 C-28.46500015258789,19.979000091552734 -28.46500015258789,-19.979000091552734 -28.46500015258789,-19.979000091552734 C-28.46500015258789,-19.979000091552734 28.465999603271484,-19.979000091552734 28.465999603271484,-19.979000091552734 C28.465999603271484,-19.979000091552734 28.465999603271484,19.979000091552734 28.465999603271484,19.979000091552734z"/></g><g opacity="1" transform="matrix(1,0,0,1,1104.4749755859375,534.2100219726562)"><path fill="rgb(255,129,44)" fill-opacity="1" d=" M38.9109992980957,12.36299991607666 C38.9109992980957,12.36299991607666 -38.9109992980957,12.36299991607666 -38.9109992980957,12.36299991607666 C-38.9109992980957,12.36299991607666 -0.0010000000474974513,-12.36400032043457 -0.0010000000474974513,-12.36400032043457 C-0.0010000000474974513,-12.36400032043457 38.9109992980957,12.36299991607666 38.9109992980957,12.36299991607666z"/><path stroke-linecap="round" stroke-linejoin="round" fill-opacity="0" stroke="rgb(0,0,0)" stroke-opacity="1" stroke-width="2" d=" M38.9109992980957,12.36299991607666 C38.9109992980957,12.36299991607666 -38.9109992980957,12.36299991607666 -38.9109992980957,12.36299991607666 C-38.9109992980957,12.36299991607666 -0.0010000000474974513,-12.36400032043457 -0.0010000000474974513,-12.36400032043457 C-0.0010000000474974513,-12.36400032043457 38.9109992980957,12.36299991607666 38.9109992980957,12.36299991607666z"/></g><g opacity="1" transform="matrix(1,0,0,1,1104.4749755859375,572.6669921875)"><path fill="rgb(28,3,17)" fill-opacity="1" d=" M0,-12.723999977111816 C0,-12.723999977111816 0,-12.723999977111816 0,-12.723999977111816 C-6.033999919891357,-12.723999977111816 -10.927000045776367,-7.831999778747559 -10.927000045776367,-1.7979999780654907 C-10.927000045776367,-1.7979999780654907 -10.927000045776367,12.723999977111816 -10.927000045776367,12.723999977111816 C-10.927000045776367,12.723999977111816 10.925999641418457,12.723999977111816 10.925999641418457,12.723999977111816 C10.925999641418457,12.723999977111816 10.925999641418457,-1.7979999780654907 10.925999641418457,-1.7979999780654907 C10.925999641418457,-7.831999778747559 6.033999919891357,-12.723999977111816 0,-12.723999977111816z"/><path stroke-linecap="round" stroke-linejoin="round" fill-opacity="0" stroke="rgb(26,26,26)" stroke-opacity="1" stroke-width="1" d=" M0,-12.723999977111816 C0,-12.723999977111816 0,-12.723999977111816 0,-12.723999977111816 C-6.033999919891357,-12.723999977111816 -10.927000045776367,-7.831999778747559 -10.927000045776367,-1.7979999780654907 C-10.927000045776367,-1.7979999780654907 -10.927000045776367,12.723999977111816 -10.927000045776367,12.723999977111816 C-10.927000045776367,12.723999977111816 10.925999641418457,12.723999977111816 10.925999641418457,12.723999977111816 C10.925999641418457,12.723999977111816 10.925999641418457,-1.7979999780654907 10.925999641418457,-1.7979999780654907 C10.925999641418457,-7.831999778747559 6.033999919891357,-12.723999977111816 0,-12.723999977111816z"/></g></g><g transform="matrix(1,0,0,1,-360,60)" opacity="1" style="display: block;"><g opacity="1" transform="matrix(1,0,0,1,710.5850219726562,224.3300018310547)"><path fill="rgb(255,255,255)" fill-opacity="1" d=" M72.60199737548828,-8.79800033569336 C72.37999725341797,-8.79800033569336 72.16100311279297,-8.78600025177002 71.94000244140625,-8.781000137329102 C67.70800018310547,-36.57899856567383 43.70399856567383,-57.87799835205078 14.723999977111816,-57.87799835205078 C-12.70300006866455,-57.87799835205078 -35.67300033569336,-38.79899978637695 -41.643001556396484,-13.1899995803833 C-47.731998443603516,-17.43000030517578 -55.12900161743164,-19.92300033569336 -63.11199951171875,-19.92300033569336 C-83.89399719238281,-19.92300033569336 -100.73999786376953,-3.075000047683716 -100.73999786376953,17.70599937438965 C-100.73999786376953,38.48699951171875 -83.89399719238281,55.332000732421875 -63.11199951171875,55.332000732421875 C-49.08100128173828,55.332000732421875 -36.85300064086914,47.64799880981445 -30.382999420166016,36.26300048828125 C-19.77400016784668,49.44200134277344 -3.51200008392334,57.87799835205078 14.723999977111816,57.87799835205078 C30.45800018310547,57.87799835205078 44.72200012207031,51.59700012207031 55.154998779296875,41.409000396728516 C59.95100021362305,45.20600128173828 66.00900268554688,47.47999954223633 72.60199737548828,47.47999954223633 C88.14299774169922,47.47999954223633 100.74099731445312,34.88199996948242 100.74099731445312,19.340999603271484 C100.74099731445312,3.799999952316284 88.14299774169922,-8.79800033569336 72.60199737548828,-8.79800033569336z"/><path stroke-linecap="round" stroke-linejoin="round" fill-opacity="0" stroke="rgb(26,26,26)" stroke-opacity="1" stroke-width="2" d=" M72.60199737548828,-8.79800033569336 C72.37999725341797,-8.79800033569336 72.16100311279297,-8.78600025177002 71.94000244140625,-8.781000137329102 C67.70800018310547,-36.57899856567383 43.70399856567383,-57.87799835205078 14.723999977111816,-57.87799835205078 C-12.70300006866455,-57.87799835205078 -35.67300033569336,-38.79899978637695 -41.643001556396484,-13.1899995803833 C-47.731998443603516,-17.43000030517578 -55.12900161743164,-19.92300033569336 -63.11199951171875,-19.92300033569336 C-83.89399719238281,-19.92300033569336 -100.73999786376953,-3.075000047683716 -100.73999786376953,17.70599937438965 C-100.73999786376953,38.48699951171875 -83.89399719238281,55.332000732421875 -63.11199951171875,55.332000732421875 C-49.08100128173828,55.332000732421875 -36.85300064086914,47.64799880981445 -30.382999420166016,36.26300048828125 C-19.77400016784668,49.44200134277344 -3.51200008392334,57.87799835205078 14.723999977111816,57.87799835205078 C30.45800018310547,57.87799835205078 44.72200012207031,51.59700012207031 55.154998779296875,41.409000396728516 C59.95100021362305,45.20600128173828 66.00900268554688,47.47999954223633 72.60199737548828,47.47999954223633 C88.14299774169922,47.47999954223633 100.74099731445312,34.88199996948242 100.74099731445312,19.340999603271484 C100.74099731445312,3.799999952316284 88.14299774169922,-8.79800033569336 72.60199737548828,-8.79800033569336z"/></g><g opacity="1" transform="matrix(1,0,0,1,720.7080078125,441.37200927734375)"><path stroke-linecap="round" stroke-linejoin="round" fill-opacity="0" stroke-dasharray=" 10" stroke-dashoffset="46.6790885925293" stroke="rgb(26,26,26)" stroke-opacity="1" stroke-width="2" d=" M31.847000122070312,172.052001953125 C31.847000122070312,172.052001953125 -31.847000122070312,172.052001953125 -31.847000122070312,172.052001953125 C-31.847000122070312,172.052001953125 -31.847000122070312,-172.052001953125 -31.847000122070312,-172.052001953125"/></g><g opacity="1" transform="matrix(1,0,0,1,728.552978515625,436.22198486328125)"><path stroke-linecap="round" stroke-linejoin="round" fill-opacity="0" stroke-dasharray=" 10" stroke-dashoffset="52.350379943847656" stroke="rgb(26,26,26)" stroke-opacity="1" stroke-width="2" d=" M-22.256999969482422,-156.5780029296875 C-22.256999969482422,-156.5780029296875 -22.256999969482422,156.5780029296875 -22.256999969482422,156.5780029296875 C-22.256999969482422,156.5780029296875 22.257999420166016,156.5780029296875 22.257999420166016,156.5780029296875"/></g><g opacity="1" transform="matrix(1,0,0,1,0,0)"><g opacity="1" transform="matrix(1,0,0,1,741.5029907226562,352.7090148925781)"><path fill="rgb(28,3,17)" fill-opacity="1" d=" M6.980000019073486,0 C6.980000019073486,-3.8550000190734863 3.8550000190734863,-6.980000019073486 0,-6.980000019073486 C-3.8550000190734863,-6.980000019073486 -6.980000019073486,-3.8550000190734863 -6.980000019073486,0 C-6.980000019073486,3.8550000190734863 -3.8550000190734863,6.980000019073486 0,6.980000019073486 C3.8550000190734863,6.980000019073486 6.980000019073486,3.8550000190734863 6.980000019073486,0z"/><path stroke-linecap="round" stroke-linejoin="round" fill-opacity="0" stroke="rgb(26,26,26)" stroke-opacity="1" stroke-width="1" d=" M6.980000019073486,0 C6.980000019073486,-3.8550000190734863 3.8550000190734863,-6.980000019073486 0,-6.980000019073486 C-3.8550000190734863,-6.980000019073486 -6.980000019073486,-3.8550000190734863 -6.980000019073486,0 C-6.980000019073486,3.8550000190734863 -3.8550000190734863,6.980000019073486 0,6.980000019073486 C3.8550000190734863,6.980000019073486 6.980000019073486,3.8550000190734863 6.980000019073486,0z"/></g><g opacity="1" transform="matrix(1,0,0,1,678.8499755859375,404.8420104980469)"><path fill="rgb(255,255,255)" fill-opacity="1" d=" M59.935001373291016,0 C59.935001373291016,-33.10200119018555 33.10100173950195,-59.93600082397461 -0.0010000000474974513,-59.93600082397461 C-33.10200119018555,-59.93600082397461 -59.93600082397461,-33.10200119018555 -59.93600082397461,0 C-59.93600082397461,33.10100173950195 -33.10200119018555,59.93600082397461 -0.0010000000474974513,59.93600082397461 C33.10100173950195,59.93600082397461 59.935001373291016,33.10100173950195 59.935001373291016,0z"/><path stroke-linecap="round" stroke-linejoin="round" fill-opacity="0" stroke="rgb(26,26,26)" stroke-opacity="1" stroke-width="2" d=" M59.935001373291016,0 C59.935001373291016,-33.10200119018555 33.10100173950195,-59.93600082397461 -0.0010000000474974513,-59.93600082397461 C-33.10200119018555,-59.93600082397461 -59.93600082397461,-33.10200119018555 -59.93600082397461,0 C-59.93600082397461,33.10100173950195 -33.10200119018555,59.93600082397461 -0.0010000000474974513,59.93600082397461 C33.10100173950195,59.93600082397461 59.935001373291016,33.10100173950195 59.935001373291016,0z"/></g><g opacity="1" transform="matrix(1,0,0,1,645.8159790039062,382.27398681640625)"><path stroke-linecap="round" stroke-linejoin="round" fill-opacity="0" stroke="rgb(26,26,26)" stroke-opacity="1" stroke-width="2" d=" M-18.905000686645508,-16.28700065612793 C-18.905000686645508,-16.28700065612793 18.905000686645508,16.28700065612793 18.905000686645508,16.28700065612793"/></g><g opacity="1" transform="matrix(1,0,0,1,640.072021484375,418.42498779296875)"><path stroke-linecap="round" stroke-linejoin="round" fill-opacity="0" stroke="rgb(26,26,26)" stroke-opacity="1" stroke-width="2" d=" M-21.158000946044922,13.583000183105469 C-21.158000946044922,13.583000183105469 21.158000946044922,-13.583000183105469 21.158000946044922,-13.583000183105469"/></g><g opacity="1" transform="matrix(1,0,0,1,682.7520141601562,420.6199951171875)"><path stroke-linecap="round" stroke-linejoin="round" fill-opacity="0" stroke="rgb(26,26,26)" stroke-opacity="1" stroke-width="2" d=" M-14.541999816894531,-14.206000328063965 C-14.541999816894531,-14.206000328063965 14.541999816894531,14.206000328063965 14.541999816894531,14.206000328063965"/></g><g opacity="1" transform="matrix(1,0,0,1,690.60498046875,388.94500732421875)"><path stroke-linecap="round" stroke-linejoin="round" fill-opacity="0" stroke="rgb(26,26,26)" stroke-opacity="1" stroke-width="2" d=" M-22.395000457763672,12.196999549865723 C-22.395000457763672,12.196999549865723 22.395000457763672,-12.196999549865723 22.395000457763672,-12.196999549865723"/></g><g opacity="1" transform="matrix(1,0,0,1,720.85302734375,404.37799072265625)"><path stroke-linecap="round" stroke-linejoin="round" fill-opacity="0" stroke="rgb(26,26,26)" stroke-opacity="1" stroke-width="2" d=" M-2.763000011444092,-27.6299991607666 C-2.763000011444092,-27.6299991607666 23.558000564575195,18.031999588012695 23.558000564575195,18.031999588012695 C23.558000564575195,18.031999588012695 -23.558000564575195,27.6299991607666 -23.558000564575195,27.6299991607666"/></g><g opacity="1" transform="matrix(1,0,0,1,664.7210083007812,402.63299560546875)"><path fill="rgb(28,3,17)" fill-opacity="1" d=" M6.980000019073486,0 C6.980000019073486,-3.8550000190734863 3.8550000190734863,-6.980000019073486 0,-6.980000019073486 C-3.8550000190734863,-6.980000019073486 -6.980000019073486,-3.8550000190734863 -6.980000019073486,0 C-6.980000019073486,3.8550000190734863 -3.8550000190734863,6.980000019073486 0,6.980000019073486 C3.8550000190734863,6.980000019073486 6.980000019073486,3.8550000190734863 6.980000019073486,0z"/><path stroke-linecap="round" stroke-linejoin="round" fill-opacity="0" stroke="rgb(26,26,26)" stroke-opacity="1" stroke-width="1" d=" M6.980000019073486,0 C6.980000019073486,-3.8550000190734863 3.8550000190734863,-6.980000019073486 0,-6.980000019073486 C-3.8550000190734863,-6.980000019073486 -6.980000019073486,-3.8550000190734863 -6.980000019073486,0 C-6.980000019073486,3.8550000190734863 -3.8550000190734863,6.980000019073486 0,6.980000019073486 C3.8550000190734863,6.980000019073486 6.980000019073486,3.8550000190734863 6.980000019073486,0z"/></g><g opacity="1" transform="matrix(1,0,0,1,697.2949829101562,432.00799560546875)"><path fill="rgb(28,3,17)" fill-opacity="1" d=" M6.980000019073486,0 C6.980000019073486,-3.8550000190734863 3.8550000190734863,-6.980000019073486 0,-6.980000019073486 C-3.8550000190734863,-6.980000019073486 -6.980000019073486,-3.8550000190734863 -6.980000019073486,0 C-6.980000019073486,3.8550000190734863 -3.8550000190734863,6.980000019073486 0,6.980000019073486 C3.8550000190734863,6.980000019073486 6.980000019073486,3.8550000190734863 6.980000019073486,0z"/><path stroke-linecap="round" stroke-linejoin="round" fill-opacity="0" stroke="rgb(26,26,26)" stroke-opacity="1" stroke-width="1" d=" M6.980000019073486,0 C6.980000019073486,-3.8550000190734863 3.8550000190734863,-6.980000019073486 0,-6.980000019073486 C-3.8550000190734863,-6.980000019073486 -6.980000019073486,-3.8550000190734863 -6.980000019073486,0 C-6.980000019073486,3.8550000190734863 -3.8550000190734863,6.980000019073486 0,6.980000019073486 C3.8550000190734863,6.980000019073486 6.980000019073486,3.8550000190734863 6.980000019073486,0z"/></g><g opacity="1" transform="matrix(1,0,0,1,744.4119873046875,421.9570007324219)"><path fill="rgb(28,3,17)" fill-opacity="1" d=" M6.980000019073486,0 C6.980000019073486,-3.8550000190734863 3.8550000190734863,-6.980000019073486 0,-6.980000019073486 C-3.8550000190734863,-6.980000019073486 -6.980000019073486,-3.8550000190734863 -6.980000019073486,0 C-6.980000019073486,3.8550000190734863 -3.8550000190734863,6.980000019073486 0,6.980000019073486 C3.8550000190734863,6.980000019073486 6.980000019073486,3.8550000190734863 6.980000019073486,0z"/><path stroke-linecap="round" stroke-linejoin="round" fill-opacity="0" stroke="rgb(26,26,26)" stroke-opacity="1" stroke-width="1" d=" M6.980000019073486,0 C6.980000019073486,-3.8550000190734863 3.8550000190734863,-6.980000019073486 0,-6.980000019073486 C-3.8550000190734863,-6.980000019073486 -6.980000019073486,-3.8550000190734863 -6.980000019073486,0 C-6.980000019073486,3.8550000190734863 -3.8550000190734863,6.980000019073486 0,6.980000019073486 C3.8550000190734863,6.980000019073486 6.980000019073486,3.8550000190734863 6.980000019073486,0z"/></g><g opacity="1" transform="matrix(1,0,0,1,716.2000122070312,374.25799560546875)"><path fill="rgb(28,3,17)" fill-opacity="1" d=" M6.980000019073486,0 C6.980000019073486,-3.8550000190734863 3.8550000190734863,-6.980000019073486 0,-6.980000019073486 C-3.8550000190734863,-6.980000019073486 -6.980000019073486,-3.8550000190734863 -6.980000019073486,0 C-6.980000019073486,3.8550000190734863 -3.8550000190734863,6.980000019073486 0,6.980000019073486 C3.8550000190734863,6.980000019073486 6.980000019073486,3.8550000190734863 6.980000019073486,0z"/><path stroke-linecap="round" stroke-linejoin="round" fill-opacity="0" stroke="rgb(26,26,26)" stroke-opacity="1" stroke-width="1" d=" M6.980000019073486,0 C6.980000019073486,-3.8550000190734863 3.8550000190734863,-6.980000019073486 0,-6.980000019073486 C-3.8550000190734863,-6.980000019073486 -6.980000019073486,-3.8550000190734863 -6.980000019073486,0 C-6.980000019073486,3.8550000190734863 -3.8550000190734863,6.980000019073486 0,6.980000019073486 C3.8550000190734863,6.980000019073486 6.980000019073486,3.8550000190734863 6.980000019073486,0z"/></g><g opacity="1" transform="matrix(1,0,0,1,709.219970703125,457.7969970703125)"><path fill="rgb(28,3,17)" fill-opacity="1" d=" M6.980000019073486,0 C6.980000019073486,-3.8550000190734863 3.8550000190734863,-6.980000019073486 0,-6.980000019073486 C-3.8550000190734863,-6.980000019073486 -6.980000019073486,-3.8550000190734863 -6.980000019073486,0 C-6.980000019073486,3.8550000190734863 -3.8550000190734863,6.980000019073486 0,6.980000019073486 C3.8550000190734863,6.980000019073486 6.980000019073486,3.8550000190734863 6.980000019073486,0z"/><path stroke-linecap="round" stroke-linejoin="round" fill-opacity="0" stroke="rgb(26,26,26)" stroke-opacity="1" stroke-width="1" d=" M6.980000019073486,0 C6.980000019073486,-3.8550000190734863 3.8550000190734863,-6.980000019073486 0,-6.980000019073486 C-3.8550000190734863,-6.980000019073486 -6.980000019073486,-3.8550000190734863 -6.980000019073486,0 C-6.980000019073486,3.8550000190734863 -3.8550000190734863,6.980000019073486 0,6.980000019073486 C3.8550000190734863,6.980000019073486 6.980000019073486,3.8550000190734863 6.980000019073486,0z"/></g><g opacity="1" transform="matrix(1,0,0,1,670.6829833984375,344.1960144042969)"><path fill="rgb(28,3,17)" fill-opacity="1" d=" M6.980000019073486,0 C6.980000019073486,-3.8550000190734863 3.8550000190734863,-6.980000019073486 0,-6.980000019073486 C-3.8550000190734863,-6.980000019073486 -6.980000019073486,-3.8550000190734863 -6.980000019073486,0 C-6.980000019073486,3.8550000190734863 -3.8550000190734863,6.980000019073486 0,6.980000019073486 C3.8550000190734863,6.980000019073486 6.980000019073486,3.8550000190734863 6.980000019073486,0z"/><path stroke-linecap="round" stroke-linejoin="round" fill-opacity="0" stroke="rgb(26,26,26)" stroke-opacity="1" stroke-width="1" d=" M6.980000019073486,0 C6.980000019073486,-3.8550000190734863 3.8550000190734863,-6.980000019073486 0,-6.980000019073486 C-3.8550000190734863,-6.980000019073486 -6.980000019073486,-3.8550000190734863 -6.980000019073486,0 C-6.980000019073486,3.8550000190734863 -3.8550000190734863,6.980000019073486 0,6.980000019073486 C3.8550000190734863,6.980000019073486 6.980000019073486,3.8550000190734863 6.980000019073486,0z"/></g><g opacity="1" transform="matrix(1,0,0,1,703.0390014648438,446.3110046386719)"><path stroke-linecap="round" stroke-linejoin="round" fill-opacity="0" stroke="rgb(26,26,26)" stroke-opacity="1" stroke-width="2" d=" M4.798999786376953,11.486000061035156 C4.798999786376953,11.486000061035156 -4.798999786376953,-11.486000061035156 -4.798999786376953,-11.486000061035156"/></g><g opacity="1" transform="matrix(1,0,0,1,674.208984375,434.5050048828125)"><path stroke-linecap="round" stroke-linejoin="round" fill-opacity="0" stroke="rgb(26,26,26)" stroke-opacity="1" stroke-width="2" d=" M21.413999557495117,-1.0429999828338623 C21.413999557495117,-1.0429999828338623 -21.413999557495117,26.56399917602539 -21.413999557495117,26.56399917602539 C-21.413999557495117,26.56399917602539 -10.506999969482422,-26.56399917602539 -10.506999969482422,-26.56399917602539"/></g><g opacity="1" transform="matrix(1,0,0,1,667.1929931640625,373.25799560546875)"><path stroke-linecap="round" stroke-linejoin="round" fill-opacity="0" stroke="rgb(26,26,26)" stroke-opacity="1" stroke-width="2" d=" M2.4719998836517334,-26.829999923706055 C2.4719998836517334,-26.829999923706055 -2.4719998836517334,26.829999923706055 -2.4719998836517334,26.829999923706055"/></g><g opacity="1" transform="matrix(1,0,0,1,619.625,428.93701171875)"><path fill="rgb(28,3,17)" fill-opacity="1" d=" M6.980000019073486,0 C6.980000019073486,-3.8550000190734863 3.8550000190734863,-6.980000019073486 0,-6.980000019073486 C-3.8550000190734863,-6.980000019073486 -6.980000019073486,-3.8550000190734863 -6.980000019073486,0 C-6.980000019073486,3.8550000190734863 -3.8550000190734863,6.980000019073486 0,6.980000019073486 C3.8550000190734863,6.980000019073486 6.980000019073486,3.8550000190734863 6.980000019073486,0z"/><path stroke-linecap="round" stroke-linejoin="round" fill-opacity="0" stroke="rgb(26,26,26)" stroke-opacity="1" stroke-width="1" d=" M6.980000019073486,0 C6.980000019073486,-3.8550000190734863 3.8550000190734863,-6.980000019073486 0,-6.980000019073486 C-3.8550000190734863,-6.980000019073486 -6.980000019073486,-3.8550000190734863 -6.980000019073486,0 C-6.980000019073486,3.8550000190734863 -3.8550000190734863,6.980000019073486 0,6.980000019073486 C3.8550000190734863,6.980000019073486 6.980000019073486,3.8550000190734863 6.980000019073486,0z"/></g><g opacity="1" transform="matrix(1,0,0,1,626.60498046875,367.27801513671875)"><path fill="rgb(28,3,17)" fill-opacity="1" d=" M6.980000019073486,0 C6.980000019073486,-3.8550000190734863 3.8550000190734863,-6.980000019073486 0,-6.980000019073486 C-3.8550000190734863,-6.980000019073486 -6.980000019073486,-3.8550000190734863 -6.980000019073486,0 C-6.980000019073486,3.8550000190734863 -3.8550000190734863,6.980000019073486 0,6.980000019073486 C3.8550000190734863,6.980000019073486 6.980000019073486,3.8550000190734863 6.980000019073486,0z"/><path stroke-linecap="round" stroke-linejoin="round" fill-opacity="0" stroke="rgb(26,26,26)" stroke-opacity="1" stroke-width="1" d=" M6.980000019073486,0 C6.980000019073486,-3.8550000190734863 3.8550000190734863,-6.980000019073486 0,-6.980000019073486 C-3.8550000190734863,-6.980000019073486 -6.980000019073486,-3.8550000190734863 -6.980000019073486,0 C-6.980000019073486,3.8550000190734863 -3.8550000190734863,6.980000019073486 0,6.980000019073486 C3.8550000190734863,6.980000019073486 6.980000019073486,3.8550000190734863 6.980000019073486,0z"/></g><g opacity="1" transform="matrix(1,0,0,1,652.7960205078125,461.0690002441406)"><path fill="rgb(28,3,17)" fill-opacity="1" d=" M6.980000019073486,0 C6.980000019073486,-3.8550000190734863 3.8550000190734863,-6.980000019073486 0,-6.980000019073486 C-3.8550000190734863,-6.980000019073486 -6.980000019073486,-3.8550000190734863 -6.980000019073486,0 C-6.980000019073486,3.8550000190734863 -3.8550000190734863,6.980000019073486 0,6.980000019073486 C3.8550000190734863,6.980000019073486 6.980000019073486,3.8550000190734863 6.980000019073486,0z"/><path stroke-linecap="round" stroke-linejoin="round" fill-opacity="0" stroke="rgb(26,26,26)" stroke-opacity="1" stroke-width="1" d=" M6.980000019073486,0 C6.980000019073486,-3.8550000190734863 3.8550000190734863,-6.980000019073486 0,-6.980000019073486 C-3.8550000190734863,-6.980000019073486 -6.980000019073486,-3.8550000190734863 -6.980000019073486,0 C-6.980000019073486,3.8550000190734863 -3.8550000190734863,6.980000019073486 0,6.980000019073486 C3.8550000190734863,6.980000019073486 6.980000019073486,3.8550000190734863 6.980000019073486,0z"/></g><g opacity="1" transform="matrix(1,0,0,1,0,0)"><g opacity="1" transform="matrix(1,0,0,1,708.0560302734375,383.0769958496094)"><path stroke-linecap="round" stroke-linejoin="round" fill-opacity="0" stroke="rgb(26,26,26)" stroke-opacity="1" stroke-width="2" d=" M36.35499954223633,38.880001068115234 C36.35499954223633,38.880001068115234 33.44599914550781,-28.142000198364258 33.44599914550781,-28.142000198364258 C33.44599914550781,-28.142000198364258 10.034000396728516,-9.819000244140625 10.034000396728516,-9.819000244140625 C10.034000396728516,-9.819000244140625 -36.35599899291992,-38.880001068115234 -36.35599899291992,-38.880001068115234 C-36.35599899291992,-38.880001068115234 33.44599914550781,-30.368000030517578 33.44599914550781,-30.368000030517578"/></g></g></g></g><g transform="matrix(1,0,0,1,600,600)" opacity="1" style="display: block;"/></g><g clip-path="url(#__lottie_element_1751)" transform="matrix(1,0,0,1,0,80)" opacity="1" style="display: block;"><g transform="matrix(0.9999995231628418,0.0009623466758057475,-0.0009623466758057475,0.9999995231628418,-359.5257568359375,59.12060546875)" opacity="1" style="display: block;"><g opacity="1" transform="matrix(1,0,0,1,1092.5238037109375,380.50543212890625)"><path fill="rgb(255,255,255)" fill-opacity="1" d=" M-19.631999969482422,9.743000030517578 C-19.631999969482422,9.743000030517578 0.14499999582767487,-19.631999969482422 14.105999946594238,-21.667999267578125 C19.631999969482422,-22.83099937438965 16.43199920654297,-19.049999237060547 10.324999809265137,-15.5600004196167 C10.324999809265137,-15.5600004196167 4.798999786376953,-12.069999694824219 4.798999786376953,-12.069999694824219 C4.798999786376953,-12.069999694824219 16.018999099731445,-2.763000011444092 14.62600040435791,4.2170000076293945 C13.232999801635742,11.196999549865723 -0.1459999978542328,11.196999549865723 -9.743000030517578,22.83099937438965 C-16.724000930786133,14.977999687194824 -19.631999969482422,9.743000030517578 -19.631999969482422,9.743000030517578z"/><path stroke-linecap="round" stroke-linejoin="round" fill-opacity="0" stroke="rgb(26,26,26)" stroke-opacity="1" stroke-width="2" d=" M-19.631999969482422,9.743000030517578 C-19.631999969482422,9.743000030517578 0.14499999582767487,-19.631999969482422 14.105999946594238,-21.667999267578125 C19.631999969482422,-22.83099937438965 16.43199920654297,-19.049999237060547 10.324999809265137,-15.5600004196167 C10.324999809265137,-15.5600004196167 4.798999786376953,-12.069999694824219 4.798999786376953,-12.069999694824219 C4.798999786376953,-12.069999694824219 16.018999099731445,-2.763000011444092 14.62600040435791,4.2170000076293945 C13.232999801635742,11.196999549865723 -0.1459999978542328,11.196999549865723 -9.743000030517578,22.83099937438965 C-16.724000930786133,14.977999687194824 -19.631999969482422,9.743000030517578 -19.631999969482422,9.743000030517578z"/></g><g opacity="1" transform="matrix(1,0,0,1,1003.1510009765625,409.0409851074219)"><path fill="rgb(255,255,255)" fill-opacity="1" d=" M-55.80400085449219,-79.41000366210938 C-55.80400085449219,-79.41000366210938 -29.40999984741211,-77.66400146484375 -22.865999221801758,-37.52799987792969 C-18.51300048828125,-10.82800006866455 -16.27398109436035,15.2938814163208 -4.836243152618408,17.823190689086914 C6.662879943847656,20.336013793945312 42.93584060668945,-5.017638206481934 68.8203353881836,-21.009618759155273 C78.7809829711914,-22.97026252746582 83.39454650878906,-6.5149407386779785 83.39454650878906,-6.5149407386779785 C83.39454650878906,-6.5149407386779785 14.562999725341797,79.41000366210938 -18.503999710083008,58.013999938964844 C-48.16999816894531,38.819000244140625 -53.404998779296875,14.38700008392334 -53.404998779296875,14.38700008392334"/><path stroke-linecap="round" stroke-linejoin="round" fill-opacity="0" stroke="rgb(26,26,26)" stroke-opacity="1" stroke-width="2" d=" M-55.80400085449219,-79.41000366210938 C-55.80400085449219,-79.41000366210938 -29.40999984741211,-77.66400146484375 -22.865999221801758,-37.52799987792969 C-18.51300048828125,-10.82800006866455 -16.27398109436035,15.2938814163208 -4.836243152618408,17.823190689086914 C6.662879943847656,20.336013793945312 42.93584060668945,-5.017638206481934 68.8203353881836,-21.009618759155273 C78.7809829711914,-22.97026252746582 83.39454650878906,-6.5149407386779785 83.39454650878906,-6.5149407386779785 C83.39454650878906,-6.5149407386779785 14.562999725341797,79.41000366210938 -18.503999710083008,58.013999938964844 C-48.16999816894531,38.819000244140625 -53.404998779296875,14.38700008392334 -53.404998779296875,14.38700008392334"/></g></g><g transform="matrix(1,0,0,1,-360,60.000030517578125)" opacity="1" style="display: block;"><g opacity="1" transform="matrix(1,0,0,1,897.177001953125,803.72900390625)"><path fill="rgb(255,255,255)" fill-opacity="1" d=" M8.725000381469727,-16.020999908447266 C8.725000381469727,-19.65399932861328 8.89900016784668,-22.974000930786133 9.14799976348877,-25.868000030517578 C-0.024000000208616257,-23.621999740600586 -11.07800006866455,-26.253000259399414 -17.784000396728516,-31.927000045776367 C-18.094999313354492,-32.23899841308594 -18.349000930786133,-32.624000549316406 -18.558000564575195,-33.05699920654297 C-21.840999603271484,-26.39299964904785 -25.301000595092773,-17.79599952697754 -25.95800018310547,-10.130999565124512 C-27.267000198364258,5.13700008392334 3.259999990463257,33.05799865722656 15.262999534606934,31.312999725341797 C27.267000198364258,29.56800079345703 8.725000381469727,-3.1519999504089355 8.725000381469727,-16.020999908447266z"/><path stroke-linecap="round" stroke-linejoin="round" fill-opacity="0" stroke="rgb(26,26,26)" stroke-opacity="1" stroke-width="2" d=" M8.725000381469727,-16.020999908447266 C8.725000381469727,-19.65399932861328 8.89900016784668,-22.974000930786133 9.14799976348877,-25.868000030517578 C-0.024000000208616257,-23.621999740600586 -11.07800006866455,-26.253000259399414 -17.784000396728516,-31.927000045776367 C-18.094999313354492,-32.23899841308594 -18.349000930786133,-32.624000549316406 -18.558000564575195,-33.05699920654297 C-21.840999603271484,-26.39299964904785 -25.301000595092773,-17.79599952697754 -25.95800018310547,-10.130999565124512 C-27.267000198364258,5.13700008392334 3.259999990463257,33.05799865722656 15.262999534606934,31.312999725341797 C27.267000198364258,29.56800079345703 8.725000381469727,-3.1519999504089355 8.725000381469727,-16.020999908447266z"/></g><g opacity="1" transform="matrix(1,0,0,1,893.3510131835938,769.72900390625)"><path fill="rgb(28,3,17)" fill-opacity="1" d=" M12.973999977111816,8.133000373840332 C13.609000205993652,0.7739999890327454 14.732000350952148,-3.8350000381469727 14.732000350952148,-3.8350000381469727 C14.732000350952148,-3.8350000381469727 -8.390000343322754,-10.378000259399414 -8.390000343322754,-10.378000259399414 C-8.390000343322754,-10.378000259399414 -11.473999977111816,-5.670000076293945 -14.732000350952148,0.9430000185966492 C-14.52400016784668,1.3760000467300415 -14.270000457763672,1.7619999647140503 -13.958999633789062,2.072999954223633 C-7.251999855041504,7.747000217437744 3.802000045776367,10.378999710083008 12.973999977111816,8.133000373840332z"/><path stroke-linecap="round" stroke-linejoin="round" fill-opacity="0" stroke="rgb(26,26,26)" stroke-opacity="1" stroke-width="1" d=" M12.973999977111816,8.133000373840332 C13.609000205993652,0.7739999890327454 14.732000350952148,-3.8350000381469727 14.732000350952148,-3.8350000381469727 C14.732000350952148,-3.8350000381469727 -8.390000343322754,-10.378000259399414 -8.390000343322754,-10.378000259399414 C-8.390000343322754,-10.378000259399414 -11.473999977111816,-5.670000076293945 -14.732000350952148,0.9430000185966492 C-14.52400016784668,1.3760000467300415 -14.270000457763672,1.7619999647140503 -13.958999633789062,2.072999954223633 C-7.251999855041504,7.747000217437744 3.802000045776367,10.378999710083008 12.973999977111816,8.133000373840332z"/></g><g opacity="1" transform="matrix(1,0,0,1,942.875,627.708984375)"><path fill="rgb(255,129,44)" fill-opacity="1" d=" M-7.307000160217285,-58.569000244140625 C-31.518999099731445,-40.24599838256836 -55.07899856567383,99.79499816894531 -63.58599853515625,131.2050018310547 C-60.31399917602539,139.0590057373047 -30.43600082397461,145.60299682617188 -30.43600082397461,145.60299682617188 C-30.43600082397461,145.60299682617188 62.05799865722656,-52.025001525878906 66.63899993896484,-86.70800018310547 C71.22000122070312,-121.39099884033203 12.324000358581543,-145.60299682617188 12.324000358581543,-145.60299682617188 C12.324000358581543,-145.60299682617188 -63.58599853515625,-145.60299682617188 -63.58599853515625,-145.60299682617188 C-63.58599853515625,-145.60299682617188 -71.22100067138672,-78.63600158691406 -71.22100067138672,-78.63600158691406"/><path stroke-linecap="round" stroke-linejoin="round" fill-opacity="0" stroke="rgb(0,0,0)" stroke-opacity="1" stroke-width="2" d=" M-7.307000160217285,-58.569000244140625 C-31.518999099731445,-40.24599838256836 -55.07899856567383,99.79499816894531 -63.58599853515625,131.2050018310547 C-60.31399917602539,139.0590057373047 -30.43600082397461,145.60299682617188 -30.43600082397461,145.60299682617188 C-30.43600082397461,145.60299682617188 62.05799865722656,-52.025001525878906 66.63899993896484,-86.70800018310547 C71.22000122070312,-121.39099884033203 12.324000358581543,-145.60299682617188 12.324000358581543,-145.60299682617188 C12.324000358581543,-145.60299682617188 -63.58599853515625,-145.60299682617188 -63.58599853515625,-145.60299682617188 C-63.58599853515625,-145.60299682617188 -71.22100067138672,-78.63600158691406 -71.22100067138672,-78.63600158691406"/></g><g opacity="1" transform="matrix(1,0,0,1,897.041015625,793.3790283203125)"><path stroke-linecap="round" stroke-linejoin="round" fill-opacity="0" stroke="rgb(26,26,26)" stroke-opacity="1" stroke-width="2" d=" M-6.080999851226807,1.0360000133514404 C-6.080999851226807,1.0360000133514404 0.8989999890327454,2.072000026702881 6.079999923706055,-2.072000026702881"/></g><g opacity="1" transform="matrix(1,0,0,1,900.802978515625,807.5040283203125)"><path stroke-linecap="round" stroke-linejoin="round" fill-opacity="0" stroke="rgb(26,26,26)" stroke-opacity="1" stroke-width="2" d=" M-5.9710001945495605,1.74399995803833 C-5.9710001945495605,1.74399995803833 1.9900000095367432,2.671999931335449 5.9710001945495605,-2.6730000972747803"/></g></g><g transform="matrix(0.9945219159126282,0.10452846437692642,-0.10452846437692642,0.9945219159126282,-305.453125,-31.69189453125)" opacity="1" style="display: block;"><g opacity="1" transform="matrix(0.9998515248298645,-0.017233233898878098,0.017233233898878098,0.9998515248298645,-11.5887451171875,18.77618408203125)"><g opacity="1" transform="matrix(1,0,0,1,1088.1949462890625,688.4459838867188)"><path fill="rgb(28,3,17)" fill-opacity="1" d=" M12.586999893188477,2.4679999351501465 C7.257999897003174,-5.809000015258789 3.3369998931884766,-11.548999786376953 3.3369998931884766,-11.548999786376953 C3.3369998931884766,-11.548999786376953 -12.586999893188477,0.6660000085830688 -12.586999893188477,0.6660000085830688 C-12.586999893188477,0.6660000085830688 -12.449000358581543,4.689000129699707 -11.644000053405762,10.687999725341797 C-2.802000045776367,11.548999786376953 5.940000057220459,8.40999984741211 12.586999893188477,2.4679999351501465z"/><path stroke-linecap="round" stroke-linejoin="round" fill-opacity="0" stroke="rgb(26,26,26)" stroke-opacity="1" stroke-width="1" d=" M12.586999893188477,2.4679999351501465 C7.257999897003174,-5.809000015258789 3.3369998931884766,-11.548999786376953 3.3369998931884766,-11.548999786376953 C3.3369998931884766,-11.548999786376953 -12.586999893188477,0.6660000085830688 -12.586999893188477,0.6660000085830688 C-12.586999893188477,0.6660000085830688 -12.449000358581543,4.689000129699707 -11.644000053405762,10.687999725341797 C-2.802000045776367,11.548999786376953 5.940000057220459,8.40999984741211 12.586999893188477,2.4679999351501465z"/></g><g opacity="1" transform="matrix(1,0,0,1,1105.4620361328125,724.1510009765625)"><path fill="rgb(255,255,255)" fill-opacity="1" d=" M-4.678999900817871,-33.23699951171875 C-11.326000213623047,-27.295000076293945 -20.069000244140625,-24.1560001373291 -28.910999298095703,-25.017000198364258 C-27.947999954223633,-17.825000762939453 -26.024999618530273,-7.788000106811523 -22.2189998626709,1.6080000400543213 C-15.23900032043457,18.84000015258789 15.517999649047852,33.23699951171875 23.371000289916992,26.038000106811523 C28.90999984741211,20.959999084472656 8.07800006866455,-13.418999671936035 -4.678999900817871,-33.23699951171875z"/><path stroke-linecap="round" stroke-linejoin="round" fill-opacity="0" stroke="rgb(26,26,26)" stroke-opacity="1" stroke-width="2" d=" M-4.678999900817871,-33.23699951171875 C-11.326000213623047,-27.295000076293945 -20.069000244140625,-24.1560001373291 -28.910999298095703,-25.017000198364258 C-27.947999954223633,-17.825000762939453 -26.024999618530273,-7.788000106811523 -22.2189998626709,1.6080000400543213 C-15.23900032043457,18.84000015258789 15.517999649047852,33.23699951171875 23.371000289916992,26.038000106811523 C28.90999984741211,20.959999084472656 8.07800006866455,-13.418999671936035 -4.678999900817871,-33.23699951171875z"/></g><g opacity="1" transform="matrix(1,0,0,1,1097.31298828125,710.9639892578125)"><path stroke-linecap="round" stroke-linejoin="round" fill-opacity="0" stroke="rgb(26,26,26)" stroke-opacity="1" stroke-width="2" d=" M-8.39799976348877,3.5290000438690186 C-8.39799976348877,3.5290000438690186 -2.507999897003174,-2.2200000286102295 8.39799976348877,-3.5290000438690186"/></g><g opacity="1" transform="matrix(1,0,0,1,1103.239013671875,720.6320190429688)"><path stroke-linecap="round" stroke-linejoin="round" fill-opacity="0" stroke="rgb(26,26,26)" stroke-opacity="1" stroke-width="2" d=" M-6.39900016784668,2.509000062942505 C-6.39900016784668,2.509000062942505 -1.7120000123977661,-2.509000062942505 6.39900016784668,-2.1440000534057617"/></g><g opacity="1" transform="matrix(1,0,0,1,1109.0560302734375,729.8670043945312)"><path stroke-linecap="round" stroke-linejoin="round" fill-opacity="0" stroke="rgb(26,26,26)" stroke-opacity="1" stroke-width="2" d=" M-4.580999851226807,2.436000108718872 C-4.580999851226807,2.436000108718872 -1.090999960899353,-2.2909998893737793 4.580999851226807,-2.436000108718872"/></g></g><g opacity="1" transform="matrix(1,0,0,1,952.2550048828125,585.1729736328125)"><path fill="rgb(255,129,44)" fill-opacity="1" d=" M-54.641998291015625,-61.18600082397461 C-54.641998291015625,-61.18600082397461 8.180000305175781,-86.70700073242188 40.900001525878906,-82.78099822998047 C73.62000274658203,-78.8550033569336 145.60400390625,96.52300262451172 145.60400390625,96.52300262451172 C145.60400390625,96.52300262451172 124.66300201416016,109.61100006103516 124.66300201416016,109.61100006103516 C100.44999694824219,104.3759994506836 33.04600143432617,-8.835000038146973 33.04600143432617,-8.835000038146973 C33.04600143432617,-8.835000038146973 -5.938000202178955,16.07699966430664 -75.84400177001953,8.96500015258789 C-130.78199768066406,3.375999927520752 -86.70700073242188,-109.61100006103516 -86.70700073242188,-109.61100006103516 C-86.70700073242188,-109.61100006103516 -39.816001892089844,-103.06700134277344 -39.816001892089844,-103.06700134277344"/><path stroke-linecap="round" stroke-linejoin="round" fill-opacity="0" stroke="rgb(0,0,0)" stroke-opacity="1" stroke-width="2" d=" M-54.641998291015625,-61.18600082397461 C-54.641998291015625,-61.18600082397461 8.180000305175781,-86.70700073242188 40.900001525878906,-82.78099822998047 C73.62000274658203,-78.8550033569336 145.60400390625,96.52300262451172 145.60400390625,96.52300262451172 C145.60400390625,96.52300262451172 124.66300201416016,109.61100006103516 124.66300201416016,109.61100006103516 C100.44999694824219,104.3759994506836 33.04600143432617,-8.835000038146973 33.04600143432617,-8.835000038146973 C33.04600143432617,-8.835000038146973 -5.938000202178955,16.07699966430664 -75.84400177001953,8.96500015258789 C-130.78199768066406,3.375999927520752 -86.70700073242188,-109.61100006103516 -86.70700073242188,-109.61100006103516 C-86.70700073242188,-109.61100006103516 -39.816001892089844,-103.06700134277344 -39.816001892089844,-103.06700134277344"/></g></g><g transform="matrix(0.9999995231628418,0.0009623466758057475,-0.0009623466758057475,0.9999995231628418,-359.5257568359375,59.12060546875)" opacity="1" style="display: block;"><g opacity="1" transform="matrix(1,0,0,1,908.0900268554688,488.63800048828125)"><path fill="rgb(28,3,17)" fill-opacity="1" d=" M-47.10900115966797,-3.3329999446868896 C-47.10900115966797,-3.3329999446868896 36.86000061035156,14.532999992370605 47.10900115966797,-6.5320000648498535 C4.230999946594238,-14.532999992370605 -43.67100143432617,-10.178000450134277 -43.67100143432617,-10.178000450134277 C-43.67100143432617,-10.178000450134277 -47.10900115966797,-3.3329999446868896 -47.10900115966797,-3.3329999446868896z"/><path stroke-linecap="round" stroke-linejoin="round" fill-opacity="0" stroke="rgb(26,26,26)" stroke-opacity="1" stroke-width="1" d=" M-47.10900115966797,-3.3329999446868896 C-47.10900115966797,-3.3329999446868896 36.86000061035156,14.532999992370605 47.10900115966797,-6.5320000648498535 C4.230999946594238,-14.532999992370605 -43.67100143432617,-10.178000450134277 -43.67100143432617,-10.178000450134277 C-43.67100143432617,-10.178000450134277 -47.10900115966797,-3.3329999446868896 -47.10900115966797,-3.3329999446868896z"/></g><g opacity="1" transform="matrix(1,0,0,1,909.8560180664062,403.5589904785156)"><path fill="rgb(255,255,255)" fill-opacity="1" d=" M37.492000579833984,-73.9280014038086 C37.492000579833984,-73.9280014038086 -7.764999866485596,-85.74500274658203 -13.552000045776367,-73.9280014038086 C-15.020000457763672,-70.93099975585938 -64.95600128173828,16.378999710083008 -47.433998107910156,78.5459976196289 C22.440000534057617,85.74400329589844 45.34400177001953,78.5459976196289 45.34400177001953,78.5459976196289 C45.34400177001953,78.5459976196289 64.95500183105469,31.902999877929688 57.90700149536133,-8.434000015258789"/><path stroke-linecap="round" stroke-linejoin="round" fill-opacity="0" stroke="rgb(26,26,26)" stroke-opacity="1" stroke-width="2" d=" M37.492000579833984,-73.9280014038086 C37.492000579833984,-73.9280014038086 -7.764999866485596,-85.74500274658203 -13.552000045776367,-73.9280014038086 C-15.020000457763672,-70.93099975585938 -64.95600128173828,16.378999710083008 -47.433998107910156,78.5459976196289 C22.440000534057617,85.74400329589844 45.34400177001953,78.5459976196289 45.34400177001953,78.5459976196289 C45.34400177001953,78.5459976196289 64.95500183105469,31.902999877929688 57.90700149536133,-8.434000015258789"/></g><g opacity="1" transform="matrix(1,0,0,1,938.531005859375,372.093994140625)"><path stroke-linecap="round" stroke-linejoin="round" fill-opacity="0" stroke="rgb(26,26,26)" stroke-opacity="1" stroke-width="2" d=" M-2.74399995803833,-14.833000183105469 C-2.74399995803833,-14.833000183105469 2.744999885559082,-2.0360000133514404 2.181999921798706,14.833000183105469"/></g></g><g transform="matrix(0.9999930262565613,0.0037349958438426256,-0.0037349958438426256,0.9999930262565613,-360.14398193359375,53.034637451171875)" opacity="1" style="display: block;"><g opacity="1" transform="matrix(1,0,0,1,1143.3389892578125,291.84100341796875)"><path fill="rgb(255,255,255)" fill-opacity="1" d=" M84.49500274658203,93.08899688720703 C84.49500274658203,93.08899688720703 -84.49500274658203,93.08899688720703 -84.49500274658203,93.08899688720703 C-100.17400360107422,93.08899688720703 -112.88400268554688,80.37999725341797 -112.88400268554688,64.70099639892578 C-112.88400268554688,64.70099639892578 -112.88400268554688,-64.70099639892578 -112.88400268554688,-64.70099639892578 C-112.88400268554688,-80.37899780273438 -100.17400360107422,-93.08899688720703 -84.49500274658203,-93.08899688720703 C-84.49500274658203,-93.08899688720703 84.49500274658203,-93.08899688720703 84.49500274658203,-93.08899688720703 C100.17400360107422,-93.08899688720703 112.88400268554688,-80.37899780273438 112.88400268554688,-64.70099639892578 C112.88400268554688,-64.70099639892578 112.88400268554688,64.70099639892578 112.88400268554688,64.70099639892578 C112.88400268554688,80.37999725341797 100.17400360107422,93.08899688720703 84.49500274658203,93.08899688720703z"/><path stroke-linecap="round" stroke-linejoin="round" fill-opacity="0" stroke="rgb(26,26,26)" stroke-opacity="1" stroke-width="2" d=" M84.49500274658203,93.08899688720703 C84.49500274658203,93.08899688720703 -84.49500274658203,93.08899688720703 -84.49500274658203,93.08899688720703 C-100.17400360107422,93.08899688720703 -112.88400268554688,80.37999725341797 -112.88400268554688,64.70099639892578 C-112.88400268554688,64.70099639892578 -112.88400268554688,-64.70099639892578 -112.88400268554688,-64.70099639892578 C-112.88400268554688,-80.37899780273438 -100.17400360107422,-93.08899688720703 -84.49500274658203,-93.08899688720703 C-84.49500274658203,-93.08899688720703 84.49500274658203,-93.08899688720703 84.49500274658203,-93.08899688720703 C100.17400360107422,-93.08899688720703 112.88400268554688,-80.37899780273438 112.88400268554688,-64.70099639892578 C112.88400268554688,-64.70099639892578 112.88400268554688,64.70099639892578 112.88400268554688,64.70099639892578 C112.88400268554688,80.37999725341797 100.17400360107422,93.08899688720703 84.49500274658203,93.08899688720703z"/></g><g opacity="1" transform="matrix(1.3926482200622559,0,0,1.3926482200622559,1153.2769775390625,305.0830078125)"><path fill="rgb(255,255,255)" fill-opacity="1" d=" M32.44200134277344,0 C32.44200134277344,4.328000068664551 17.917999267578125,7.836999893188477 0,7.836999893188477 C-17.91699981689453,7.836999893188477 -32.44200134277344,4.328000068664551 -32.44200134277344,0 C-32.44200134277344,-4.328999996185303 -17.91699981689453,-7.836999893188477 0,-7.836999893188477 C17.917999267578125,-7.836999893188477 32.44200134277344,-4.328999996185303 32.44200134277344,0z"/><path stroke-linecap="round" stroke-linejoin="round" fill-opacity="0" stroke="rgb(26,26,26)" stroke-opacity="1" stroke-width="2" d=" M32.44200134277344,0 C32.44200134277344,4.328000068664551 17.917999267578125,7.836999893188477 0,7.836999893188477 C-17.91699981689453,7.836999893188477 -32.44200134277344,4.328000068664551 -32.44200134277344,0 C-32.44200134277344,-4.328999996185303 -17.91699981689453,-7.836999893188477 0,-7.836999893188477 C17.917999267578125,-7.836999893188477 32.44200134277344,-4.328999996185303 32.44200134277344,0z"/></g><g opacity="1" transform="matrix(1,0,0,1,0,0)"><g opacity="1" transform="matrix(1,0,0,1,1152.821044921875,246.343994140625)"><path fill="rgb(255,129,44)" fill-opacity="1" d=" M37.75600051879883,-21.023000717163086 C37.75600051879883,-41.875 20.85300064086914,-58.77799987792969 0.0010000000474974513,-58.77799987792969 C-20.850000381469727,-58.77799987792969 -37.755001068115234,-41.875 -37.755001068115234,-21.023000717163086 C-37.755001068115234,-0.17100000381469727 -9.437999725341797,58.77799987792969 0.0010000000474974513,58.77799987792969 C9.4399995803833,58.77799987792969 37.75600051879883,-0.17100000381469727 37.75600051879883,-21.023000717163086z"/><path stroke-linecap="round" stroke-linejoin="round" fill-opacity="0" stroke="rgb(0,0,0)" stroke-opacity="1" stroke-width="2" d=" M37.75600051879883,-21.023000717163086 C37.75600051879883,-41.875 20.85300064086914,-58.77799987792969 0.0010000000474974513,-58.77799987792969 C-20.850000381469727,-58.77799987792969 -37.755001068115234,-41.875 -37.755001068115234,-21.023000717163086 C-37.755001068115234,-0.17100000381469727 -9.437999725341797,58.77799987792969 0.0010000000474974513,58.77799987792969 C9.4399995803833,58.77799987792969 37.75600051879883,-0.17100000381469727 37.75600051879883,-21.023000717163086z"/></g><g opacity="1" transform="matrix(1,0,0,1,1152.822021484375,225.32000732421875)"><path fill="rgb(28,3,17)" fill-opacity="1" d=" M21.510000228881836,0 C21.510000228881836,-11.880000114440918 11.878999710083008,-21.510000228881836 -0.0010000000474974513,-21.510000228881836 C-11.880999565124512,-21.510000228881836 -21.51099967956543,-11.880000114440918 -21.51099967956543,0 C-21.51099967956543,11.880000114440918 -11.880999565124512,21.510000228881836 -0.0010000000474974513,21.510000228881836 C11.878999710083008,21.510000228881836 21.510000228881836,11.880000114440918 21.510000228881836,0z"/><path stroke-linecap="round" stroke-linejoin="round" fill-opacity="0" stroke="rgb(26,26,26)" stroke-opacity="1" stroke-width="1" d=" M21.510000228881836,0 C21.510000228881836,-11.880000114440918 11.878999710083008,-21.510000228881836 -0.0010000000474974513,-21.510000228881836 C-11.880999565124512,-21.510000228881836 -21.51099967956543,-11.880000114440918 -21.51099967956543,0 C-21.51099967956543,11.880000114440918 -11.880999565124512,21.510000228881836 -0.0010000000474974513,21.510000228881836 C11.878999710083008,21.510000228881836 21.510000228881836,11.880000114440918 21.510000228881836,0z"/></g></g><g opacity="1" transform="matrix(1,0,0,1,0,0)"><g opacity="1" transform="matrix(1,0,0,1,1103.52294921875,358.7749938964844)"><path fill="rgb(28,3,17)" fill-opacity="1" d=" M-8.866999626159668,-10.130999565124512 C-8.866999626159668,-10.130999565124512 -7.250999927520752,-1.843999981880188 -7.250999927520752,-1.843999981880188 C-6.836999893188477,0.26899999380111694 -6.423999786376953,2.506999969482422 -6.0920000076293945,4.827000141143799 C-6.0920000076293945,4.827000141143799 -6.008999824523926,4.827000141143799 -6.008999824523926,4.827000141143799 C-5.59499979019165,2.506999969482422 -5.013000011444092,0.1860000044107437 -4.515999794006348,-1.8020000457763672 C-4.515999794006348,-1.8020000457763672 -2.3610000610351562,-10.130999565124512 -2.3610000610351562,-10.130999565124512 C-2.3610000610351562,-10.130999565124512 2.6110000610351562,-10.130999565124512 2.6110000610351562,-10.130999565124512 C2.6110000610351562,-10.130999565124512 4.640999794006348,-2.0510001182556152 4.640999794006348,-2.0510001182556152 C5.178999900817871,0.2280000001192093 5.718999862670898,2.506999969482422 6.132999897003174,4.827000141143799 C6.132999897003174,4.827000141143799 6.215000152587891,4.827000141143799 6.215000152587891,4.827000141143799 C6.505000114440918,2.506999969482422 6.919000148773193,0.2280000001192093 7.375,-2.0920000076293945 C7.375,-2.0920000076293945 9.114999771118164,-10.130999565124512 9.114999771118164,-10.130999565124512 C9.114999771118164,-10.130999565124512 15.291000366210938,-10.130999565124512 15.291000366210938,-10.130999565124512 C15.291000366210938,-10.130999565124512 9.074000358581543,10.130999565124512 9.074000358581543,10.130999565124512 C9.074000358581543,10.130999565124512 3.1500000953674316,10.130999565124512 3.1500000953674316,10.130999565124512 C3.1500000953674316,10.130999565124512 1.2430000305175781,3.003999948501587 1.2430000305175781,3.003999948501587 C0.7459999918937683,1.0149999856948853 0.3720000088214874,-0.8080000281333923 -0.041999999433755875,-3.2939999103546143 C-0.041999999433755875,-3.2939999103546143 -0.125,-3.2939999103546143 -0.125,-3.2939999103546143 C-0.49799999594688416,-0.7670000195503235 -0.9110000133514404,1.0980000495910645 -1.4500000476837158,3.003999948501587 C-1.4500000476837158,3.003999948501587 -3.4800000190734863,10.130999565124512 -3.4800000190734863,10.130999565124512 C-3.4800000190734863,10.130999565124512 -9.406000137329102,10.130999565124512 -9.406000137329102,10.130999565124512 C-9.406000137329102,10.130999565124512 -15.291000366210938,-10.130999565124512 -15.291000366210938,-10.130999565124512 C-15.291000366210938,-10.130999565124512 -8.866999626159668,-10.130999565124512 -8.866999626159668,-10.130999565124512z"/><path stroke-linecap="round" stroke-linejoin="round" fill-opacity="0" stroke="rgb(26,26,26)" stroke-opacity="1" stroke-width="1" d=" M-8.866999626159668,-10.130999565124512 C-8.866999626159668,-10.130999565124512 -7.250999927520752,-1.843999981880188 -7.250999927520752,-1.843999981880188 C-6.836999893188477,0.26899999380111694 -6.423999786376953,2.506999969482422 -6.0920000076293945,4.827000141143799 C-6.0920000076293945,4.827000141143799 -6.008999824523926,4.827000141143799 -6.008999824523926,4.827000141143799 C-5.59499979019165,2.506999969482422 -5.013000011444092,0.1860000044107437 -4.515999794006348,-1.8020000457763672 C-4.515999794006348,-1.8020000457763672 -2.3610000610351562,-10.130999565124512 -2.3610000610351562,-10.130999565124512 C-2.3610000610351562,-10.130999565124512 2.6110000610351562,-10.130999565124512 2.6110000610351562,-10.130999565124512 C2.6110000610351562,-10.130999565124512 4.640999794006348,-2.0510001182556152 4.640999794006348,-2.0510001182556152 C5.178999900817871,0.2280000001192093 5.718999862670898,2.506999969482422 6.132999897003174,4.827000141143799 C6.132999897003174,4.827000141143799 6.215000152587891,4.827000141143799 6.215000152587891,4.827000141143799 C6.505000114440918,2.506999969482422 6.919000148773193,0.2280000001192093 7.375,-2.0920000076293945 C7.375,-2.0920000076293945 9.114999771118164,-10.130999565124512 9.114999771118164,-10.130999565124512 C9.114999771118164,-10.130999565124512 15.291000366210938,-10.130999565124512 15.291000366210938,-10.130999565124512 C15.291000366210938,-10.130999565124512 9.074000358581543,10.130999565124512 9.074000358581543,10.130999565124512 C9.074000358581543,10.130999565124512 3.1500000953674316,10.130999565124512 3.1500000953674316,10.130999565124512 C3.1500000953674316,10.130999565124512 1.2430000305175781,3.003999948501587 1.2430000305175781,3.003999948501587 C0.7459999918937683,1.0149999856948853 0.3720000088214874,-0.8080000281333923 -0.041999999433755875,-3.2939999103546143 C-0.041999999433755875,-3.2939999103546143 -0.125,-3.2939999103546143 -0.125,-3.2939999103546143 C-0.49799999594688416,-0.7670000195503235 -0.9110000133514404,1.0980000495910645 -1.4500000476837158,3.003999948501587 C-1.4500000476837158,3.003999948501587 -3.4800000190734863,10.130999565124512 -3.4800000190734863,10.130999565124512 C-3.4800000190734863,10.130999565124512 -9.406000137329102,10.130999565124512 -9.406000137329102,10.130999565124512 C-9.406000137329102,10.130999565124512 -15.291000366210938,-10.130999565124512 -15.291000366210938,-10.130999565124512 C-15.291000366210938,-10.130999565124512 -8.866999626159668,-10.130999565124512 -8.866999626159668,-10.130999565124512z"/></g><g opacity="1" transform="matrix(1,0,0,1,1143.3389892578125,358.7749938964844)"><path fill="rgb(28,3,17)" fill-opacity="1" d=" M-8.866999626159668,-10.130999565124512 C-8.866999626159668,-10.130999565124512 -7.250999927520752,-1.843999981880188 -7.250999927520752,-1.843999981880188 C-6.836999893188477,0.26899999380111694 -6.422999858856201,2.506999969482422 -6.091000080108643,4.827000141143799 C-6.091000080108643,4.827000141143799 -6.007999897003174,4.827000141143799 -6.007999897003174,4.827000141143799 C-5.593999862670898,2.506999969482422 -5.013000011444092,0.1860000044107437 -4.515999794006348,-1.8020000457763672 C-4.515999794006348,-1.8020000457763672 -2.361999988555908,-10.130999565124512 -2.361999988555908,-10.130999565124512 C-2.361999988555908,-10.130999565124512 2.6110000610351562,-10.130999565124512 2.6110000610351562,-10.130999565124512 C2.6110000610351562,-10.130999565124512 4.642000198364258,-2.0510001182556152 4.642000198364258,-2.0510001182556152 C5.179999828338623,0.2280000001192093 5.718999862670898,2.506999969482422 6.132999897003174,4.827000141143799 C6.132999897003174,4.827000141143799 6.216000080108643,4.827000141143799 6.216000080108643,4.827000141143799 C6.50600004196167,2.506999969482422 6.920000076293945,0.2280000001192093 7.375999927520752,-2.0920000076293945 C7.375999927520752,-2.0920000076293945 9.116000175476074,-10.130999565124512 9.116000175476074,-10.130999565124512 C9.116000175476074,-10.130999565124512 15.289999961853027,-10.130999565124512 15.289999961853027,-10.130999565124512 C15.289999961853027,-10.130999565124512 9.074999809265137,10.130999565124512 9.074999809265137,10.130999565124512 C9.074999809265137,10.130999565124512 3.1500000953674316,10.130999565124512 3.1500000953674316,10.130999565124512 C3.1500000953674316,10.130999565124512 1.2430000305175781,3.003999948501587 1.2430000305175781,3.003999948501587 C0.7459999918937683,1.0149999856948853 0.37299999594688416,-0.8080000281333923 -0.04100000113248825,-3.2939999103546143 C-0.04100000113248825,-3.2939999103546143 -0.12399999797344208,-3.2939999103546143 -0.12399999797344208,-3.2939999103546143 C-0.4970000088214874,-0.7670000195503235 -0.9110000133514404,1.0980000495910645 -1.4500000476837158,3.003999948501587 C-1.4500000476837158,3.003999948501587 -3.4800000190734863,10.130999565124512 -3.4800000190734863,10.130999565124512 C-3.4800000190734863,10.130999565124512 -9.406000137329102,10.130999565124512 -9.406000137329102,10.130999565124512 C-9.406000137329102,10.130999565124512 -15.289999961853027,-10.130999565124512 -15.289999961853027,-10.130999565124512 C-15.289999961853027,-10.130999565124512 -8.866999626159668,-10.130999565124512 -8.866999626159668,-10.130999565124512z"/><path stroke-linecap="round" stroke-linejoin="round" fill-opacity="0" stroke="rgb(26,26,26)" stroke-opacity="1" stroke-width="1" d=" M-8.866999626159668,-10.130999565124512 C-8.866999626159668,-10.130999565124512 -7.250999927520752,-1.843999981880188 -7.250999927520752,-1.843999981880188 C-6.836999893188477,0.26899999380111694 -6.422999858856201,2.506999969482422 -6.091000080108643,4.827000141143799 C-6.091000080108643,4.827000141143799 -6.007999897003174,4.827000141143799 -6.007999897003174,4.827000141143799 C-5.593999862670898,2.506999969482422 -5.013000011444092,0.1860000044107437 -4.515999794006348,-1.8020000457763672 C-4.515999794006348,-1.8020000457763672 -2.361999988555908,-10.130999565124512 -2.361999988555908,-10.130999565124512 C-2.361999988555908,-10.130999565124512 2.6110000610351562,-10.130999565124512 2.6110000610351562,-10.130999565124512 C2.6110000610351562,-10.130999565124512 4.642000198364258,-2.0510001182556152 4.642000198364258,-2.0510001182556152 C5.179999828338623,0.2280000001192093 5.718999862670898,2.506999969482422 6.132999897003174,4.827000141143799 C6.132999897003174,4.827000141143799 6.216000080108643,4.827000141143799 6.216000080108643,4.827000141143799 C6.50600004196167,2.506999969482422 6.920000076293945,0.2280000001192093 7.375999927520752,-2.0920000076293945 C7.375999927520752,-2.0920000076293945 9.116000175476074,-10.130999565124512 9.116000175476074,-10.130999565124512 C9.116000175476074,-10.130999565124512 15.289999961853027,-10.130999565124512 15.289999961853027,-10.130999565124512 C15.289999961853027,-10.130999565124512 9.074999809265137,10.130999565124512 9.074999809265137,10.130999565124512 C9.074999809265137,10.130999565124512 3.1500000953674316,10.130999565124512 3.1500000953674316,10.130999565124512 C3.1500000953674316,10.130999565124512 1.2430000305175781,3.003999948501587 1.2430000305175781,3.003999948501587 C0.7459999918937683,1.0149999856948853 0.37299999594688416,-0.8080000281333923 -0.04100000113248825,-3.2939999103546143 C-0.04100000113248825,-3.2939999103546143 -0.12399999797344208,-3.2939999103546143 -0.12399999797344208,-3.2939999103546143 C-0.4970000088214874,-0.7670000195503235 -0.9110000133514404,1.0980000495910645 -1.4500000476837158,3.003999948501587 C-1.4500000476837158,3.003999948501587 -3.4800000190734863,10.130999565124512 -3.4800000190734863,10.130999565124512 C-3.4800000190734863,10.130999565124512 -9.406000137329102,10.130999565124512 -9.406000137329102,10.130999565124512 C-9.406000137329102,10.130999565124512 -15.289999961853027,-10.130999565124512 -15.289999961853027,-10.130999565124512 C-15.289999961853027,-10.130999565124512 -8.866999626159668,-10.130999565124512 -8.866999626159668,-10.130999565124512z"/></g><g opacity="1" transform="matrix(1,0,0,1,1183.155029296875,358.7749938964844)"><path fill="rgb(28,3,17)" fill-opacity="1" d=" M-8.866999626159668,-10.130999565124512 C-8.866999626159668,-10.130999565124512 -7.250999927520752,-1.843999981880188 -7.250999927520752,-1.843999981880188 C-6.836999893188477,0.26899999380111694 -6.422999858856201,2.506999969482422 -6.0920000076293945,4.827000141143799 C-6.0920000076293945,4.827000141143799 -6.008999824523926,4.827000141143799 -6.008999824523926,4.827000141143799 C-5.59499979019165,2.506999969482422 -5.013999938964844,0.1860000044107437 -4.515999794006348,-1.8020000457763672 C-4.515999794006348,-1.8020000457763672 -2.3610000610351562,-10.130999565124512 -2.3610000610351562,-10.130999565124512 C-2.3610000610351562,-10.130999565124512 2.6110000610351562,-10.130999565124512 2.6110000610351562,-10.130999565124512 C2.6110000610351562,-10.130999565124512 4.640999794006348,-2.0510001182556152 4.640999794006348,-2.0510001182556152 C5.178999900817871,0.2280000001192093 5.718999862670898,2.506999969482422 6.132999897003174,4.827000141143799 C6.132999897003174,4.827000141143799 6.215000152587891,4.827000141143799 6.215000152587891,4.827000141143799 C6.505000114440918,2.506999969482422 6.920000076293945,0.2280000001192093 7.375,-2.0920000076293945 C7.375,-2.0920000076293945 9.114999771118164,-10.130999565124512 9.114999771118164,-10.130999565124512 C9.114999771118164,-10.130999565124512 15.291000366210938,-10.130999565124512 15.291000366210938,-10.130999565124512 C15.291000366210938,-10.130999565124512 9.074000358581543,10.130999565124512 9.074000358581543,10.130999565124512 C9.074000358581543,10.130999565124512 3.1500000953674316,10.130999565124512 3.1500000953674316,10.130999565124512 C3.1500000953674316,10.130999565124512 1.24399995803833,3.003999948501587 1.24399995803833,3.003999948501587 C0.7459999918937683,1.0149999856948853 0.3720000088214874,-0.8080000281333923 -0.041999999433755875,-3.2939999103546143 C-0.041999999433755875,-3.2939999103546143 -0.125,-3.2939999103546143 -0.125,-3.2939999103546143 C-0.49799999594688416,-0.7670000195503235 -0.9110000133514404,1.0980000495910645 -1.4500000476837158,3.003999948501587 C-1.4500000476837158,3.003999948501587 -3.4800000190734863,10.130999565124512 -3.4800000190734863,10.130999565124512 C-3.4800000190734863,10.130999565124512 -9.406000137329102,10.130999565124512 -9.406000137329102,10.130999565124512 C-9.406000137329102,10.130999565124512 -15.291000366210938,-10.130999565124512 -15.291000366210938,-10.130999565124512 C-15.291000366210938,-10.130999565124512 -8.866999626159668,-10.130999565124512 -8.866999626159668,-10.130999565124512z"/><path stroke-linecap="round" stroke-linejoin="round" fill-opacity="0" stroke="rgb(26,26,26)" stroke-opacity="1" stroke-width="1" d=" M-8.866999626159668,-10.130999565124512 C-8.866999626159668,-10.130999565124512 -7.250999927520752,-1.843999981880188 -7.250999927520752,-1.843999981880188 C-6.836999893188477,0.26899999380111694 -6.422999858856201,2.506999969482422 -6.0920000076293945,4.827000141143799 C-6.0920000076293945,4.827000141143799 -6.008999824523926,4.827000141143799 -6.008999824523926,4.827000141143799 C-5.59499979019165,2.506999969482422 -5.013999938964844,0.1860000044107437 -4.515999794006348,-1.8020000457763672 C-4.515999794006348,-1.8020000457763672 -2.3610000610351562,-10.130999565124512 -2.3610000610351562,-10.130999565124512 C-2.3610000610351562,-10.130999565124512 2.6110000610351562,-10.130999565124512 2.6110000610351562,-10.130999565124512 C2.6110000610351562,-10.130999565124512 4.640999794006348,-2.0510001182556152 4.640999794006348,-2.0510001182556152 C5.178999900817871,0.2280000001192093 5.718999862670898,2.506999969482422 6.132999897003174,4.827000141143799 C6.132999897003174,4.827000141143799 6.215000152587891,4.827000141143799 6.215000152587891,4.827000141143799 C6.505000114440918,2.506999969482422 6.920000076293945,0.2280000001192093 7.375,-2.0920000076293945 C7.375,-2.0920000076293945 9.114999771118164,-10.130999565124512 9.114999771118164,-10.130999565124512 C9.114999771118164,-10.130999565124512 15.291000366210938,-10.130999565124512 15.291000366210938,-10.130999565124512 C15.291000366210938,-10.130999565124512 9.074000358581543,10.130999565124512 9.074000358581543,10.130999565124512 C9.074000358581543,10.130999565124512 3.1500000953674316,10.130999565124512 3.1500000953674316,10.130999565124512 C3.1500000953674316,10.130999565124512 1.24399995803833,3.003999948501587 1.24399995803833,3.003999948501587 C0.7459999918937683,1.0149999856948853 0.3720000088214874,-0.8080000281333923 -0.041999999433755875,-3.2939999103546143 C-0.041999999433755875,-3.2939999103546143 -0.125,-3.2939999103546143 -0.125,-3.2939999103546143 C-0.49799999594688416,-0.7670000195503235 -0.9110000133514404,1.0980000495910645 -1.4500000476837158,3.003999948501587 C-1.4500000476837158,3.003999948501587 -3.4800000190734863,10.130999565124512 -3.4800000190734863,10.130999565124512 C-3.4800000190734863,10.130999565124512 -9.406000137329102,10.130999565124512 -9.406000137329102,10.130999565124512 C-9.406000137329102,10.130999565124512 -15.291000366210938,-10.130999565124512 -15.291000366210938,-10.130999565124512 C-15.291000366210938,-10.130999565124512 -8.866999626159668,-10.130999565124512 -8.866999626159668,-10.130999565124512z"/></g></g></g><g transform="matrix(0.9661744236946106,-0.25788936018943787,0.25788936018943787,0.9661744236946106,-413.2125244140625,303.7922668457031)" opacity="1" style="display: block;"><g opacity="1" transform="matrix(0.9612616896629333,-0.27563735842704773,0.27563735842704773,0.9612616896629333,850.2520141601562,517.1646118164062)"><path fill="rgb(255,255,255)" fill-opacity="1" d=" M-11.812999725341797,-23.9950008392334 C-11.812999725341797,-23.9950008392334 -16.61199951171875,-6.979000091552734 -17.483999252319336,6.109000205993652 C-18.35700035095215,19.195999145507812 -12.47599983215332,27.312000274658203 -6.364999771118164,27.32200050354004 C10.479999542236328,27.349000930786133 3.0329999923706055,4.790999889373779 6.291999816894531,10.616000175476074 C7.998000144958496,20.316999435424805 7.798999786376953,20.22599983215332 11.946000099182129,18.511999130249023 C14.729999542236328,17.36199951171875 9.345999717712402,-0.4350000023841858 5.201000213623047,-6.979000091552734 C1.0570000410079956,-13.52299976348877 6.291999816894531,-22.684999465942383 6.291999816894531,-22.684999465942383 C6.291999816894531,-22.684999465942383 -11.812999725341797,-23.9950008392334 -11.812999725341797,-23.9950008392334z"/><path stroke-linecap="round" stroke-linejoin="round" fill-opacity="0" stroke="rgb(26,26,26)" stroke-opacity="1" stroke-width="2" d=" M-11.812999725341797,-23.9950008392334 C-11.812999725341797,-23.9950008392334 -16.61199951171875,-6.979000091552734 -17.483999252319336,6.109000205993652 C-18.35700035095215,19.195999145507812 -12.47599983215332,27.312000274658203 -6.364999771118164,27.32200050354004 C10.479999542236328,27.349000930786133 3.0329999923706055,4.790999889373779 6.291999816894531,10.616000175476074 C7.998000144958496,20.316999435424805 7.798999786376953,20.22599983215332 11.946000099182129,18.511999130249023 C14.729999542236328,17.36199951171875 9.345999717712402,-0.4350000023841858 5.201000213623047,-6.979000091552734 C1.0570000410079956,-13.52299976348877 6.291999816894531,-22.684999465942383 6.291999816894531,-22.684999465942383 C6.291999816894531,-22.684999465942383 -11.812999725341797,-23.9950008392334 -11.812999725341797,-23.9950008392334z"/></g><g opacity="1" transform="matrix(1,0,0,1,831.3369750976562,435.0360107421875)"><path fill="rgb(255,255,255)" fill-opacity="1" d=" M71.36599731445312,-109.6729965209961 C71.36599731445312,-109.6729965209961 -37.30699920654297,-58.41600036621094 -2.684999942779541,70.62699890136719 C13.916999816894531,73.87000274658203 21.749000549316406,60.29100036621094 21.749000549316406,60.29100036621094 C21.749000549316406,60.29100036621094 31.22800064086914,3.4189999103546143 36.20100021362305,-7.929999828338623 C44.012001037597656,-25.756000518798828 64.2229995727539,-47.78200149536133 64.2229995727539,-47.78200149536133"/><path stroke-linecap="round" stroke-linejoin="round" fill-opacity="0" stroke="rgb(26,26,26)" stroke-opacity="1" stroke-width="2" d=" M71.36599731445312,-109.6729965209961 C71.36599731445312,-109.6729965209961 -37.30699920654297,-58.41600036621094 -2.684999942779541,70.62699890136719 C13.916999816894531,73.87000274658203 21.749000549316406,60.29100036621094 21.749000549316406,60.29100036621094 C21.749000549316406,60.29100036621094 31.22800064086914,3.4189999103546143 36.20100021362305,-7.929999828338623 C44.012001037597656,-25.756000518798828 64.2229995727539,-47.78200149536133 64.2229995727539,-47.78200149536133"/></g></g><g transform="matrix(0.9999942779541016,0.003371383296325803,-0.003371383296325803,0.9999942779541016,-358.6712646484375,56.90017318725586)" opacity="1" style="display: block;"><g opacity="1" transform="matrix(1,0,0,1,932.0050048828125,300.635009765625)"><path fill="rgb(255,255,255)" fill-opacity="1" d=" M-28.211999893188477,33.06800079345703 C-28.211999893188477,33.06800079345703 -19.56599998474121,23.527000427246094 -21.020000457763672,6.395999908447266 C-22.854000091552734,-15.206999778747559 -34.61000061035156,-51.5369987487793 -1.7450000047683716,-55.027000427246094 C31.1200008392334,-58.516998291015625 34.61000061035156,10.70300006866455 26.176000595092773,15.64799976348877 C17.740999221801758,20.591999053955078 10.76099967956543,14.484000205993652 10.76099967956543,14.484000205993652 C10.76099967956543,14.484000205993652 6.9679999351501465,48.50699996948242 3.053999900817871,50.52000045776367 C-12.505999565124512,58.518001556396484 -28.211999893188477,33.06800079345703 -28.211999893188477,33.06800079345703z"/><path stroke-linecap="round" stroke-linejoin="round" fill-opacity="0" stroke="rgb(26,26,26)" stroke-opacity="1" stroke-width="2" d=" M-28.211999893188477,33.06800079345703 C-28.211999893188477,33.06800079345703 -19.56599998474121,23.527000427246094 -21.020000457763672,6.395999908447266 C-22.854000091552734,-15.206999778747559 -34.61000061035156,-51.5369987487793 -1.7450000047683716,-55.027000427246094 C31.1200008392334,-58.516998291015625 34.61000061035156,10.70300006866455 26.176000595092773,15.64799976348877 C17.740999221801758,20.591999053955078 10.76099967956543,14.484000205993652 10.76099967956543,14.484000205993652 C10.76099967956543,14.484000205993652 6.9679999351501465,48.50699996948242 3.053999900817871,50.52000045776367 C-12.505999565124512,58.518001556396484 -28.211999893188477,33.06800079345703 -28.211999893188477,33.06800079345703z"/></g><g opacity="1" transform="matrix(1,0,0,1,923.4979858398438,283.02398681640625)"><path fill="rgb(28,3,17)" fill-opacity="1" d=" M-35.5620002746582,49.861000061035156 C-35.5620002746582,49.861000061035156 -15.342000007629395,56.20500183105469 -8.069999694824219,35.55500030517578 C-0.7990000247955322,14.904999732971191 -2.5439999103546143,24.211999893188477 -4.580999851226807,8.215999603271484 C-3.4170000553131104,-2.253999948501587 0.36399999260902405,8.215999603271484 0.36399999260902405,8.215999603271484 C0.36399999260902405,8.215999603271484 3.4179999828338623,11.270000457763672 4.144999980926514,9.380000114440918 C4.872000217437744,7.488999843597412 1.090999960899353,-3.2720000743865967 4.144999980926514,-7.926000118255615 C7.198999881744385,-12.579000473022461 21.30500030517578,-17.959999084472656 18.687000274658203,-33.374000549316406 C29.73900032043457,-18.97800064086914 32.64699935913086,-19.55900001525879 32.64699935913086,-19.55900001525879 C32.64699935913086,-19.55900001525879 35.29600143432617,-8.940999984741211 35.29600143432617,-8.940999984741211 C35.29600143432617,-8.940999984741211 48.35300064086914,-15.633000373840332 41.082000732421875,-26.97599983215332 C33.81100082397461,-38.319000244140625 29.156999588012695,-36.57400131225586 29.156999588012695,-36.57400131225586 C29.156999588012695,-36.57400131225586 34.82899856567383,-45.15399932861328 24.940000534057617,-50.68000030517578 C15.050999641418457,-56.20500183105469 10.833999633789062,-46.75299835205078 10.833999633789062,-46.75299835205078 C10.833999633789062,-46.75299835205078 -0.07199999690055847,-54.60599899291992 -6.179999828338623,-51.40700149536133 C-12.288000106811523,-48.207000732421875 -9.501999855041504,-39.33700180053711 -9.501999855041504,-39.33700180053711 C-9.501999855041504,-39.33700180053711 -17.81399917602539,-47.387001037597656 -23.92099952697754,-37.54499816894531 C-30.02899932861328,-27.702999114990234 -22.32200050354004,-16.069000244140625 -22.32200050354004,-16.069000244140625 C-22.32200050354004,-16.069000244140625 -39.48099899291992,-17.555999755859375 -42.680999755859375,-0.8169999718666077 C-45.880001068115234,15.92300033569336 -34.68299865722656,19.413000106811523 -34.68299865722656,19.413000106811523 C-34.68299865722656,19.413000106811523 -48.35200119018555,29.302000045776367 -44.71699905395508,38.02799987792969 C-41.08100128173828,46.75299835205078 -35.5620002746582,49.861000061035156 -35.5620002746582,49.861000061035156z"/><path stroke-linecap="round" stroke-linejoin="round" fill-opacity="0" stroke="rgb(26,26,26)" stroke-opacity="1" stroke-width="1" d=" M-35.5620002746582,49.861000061035156 C-35.5620002746582,49.861000061035156 -15.342000007629395,56.20500183105469 -8.069999694824219,35.55500030517578 C-0.7990000247955322,14.904999732971191 -2.5439999103546143,24.211999893188477 -4.580999851226807,8.215999603271484 C-3.4170000553131104,-2.253999948501587 0.36399999260902405,8.215999603271484 0.36399999260902405,8.215999603271484 C0.36399999260902405,8.215999603271484 3.4179999828338623,11.270000457763672 4.144999980926514,9.380000114440918 C4.872000217437744,7.488999843597412 1.090999960899353,-3.2720000743865967 4.144999980926514,-7.926000118255615 C7.198999881744385,-12.579000473022461 21.30500030517578,-17.959999084472656 18.687000274658203,-33.374000549316406 C29.73900032043457,-18.97800064086914 32.64699935913086,-19.55900001525879 32.64699935913086,-19.55900001525879 C32.64699935913086,-19.55900001525879 35.29600143432617,-8.940999984741211 35.29600143432617,-8.940999984741211 C35.29600143432617,-8.940999984741211 48.35300064086914,-15.633000373840332 41.082000732421875,-26.97599983215332 C33.81100082397461,-38.319000244140625 29.156999588012695,-36.57400131225586 29.156999588012695,-36.57400131225586 C29.156999588012695,-36.57400131225586 34.82899856567383,-45.15399932861328 24.940000534057617,-50.68000030517578 C15.050999641418457,-56.20500183105469 10.833999633789062,-46.75299835205078 10.833999633789062,-46.75299835205078 C10.833999633789062,-46.75299835205078 -0.07199999690055847,-54.60599899291992 -6.179999828338623,-51.40700149536133 C-12.288000106811523,-48.207000732421875 -9.501999855041504,-39.33700180053711 -9.501999855041504,-39.33700180053711 C-9.501999855041504,-39.33700180053711 -17.81399917602539,-47.387001037597656 -23.92099952697754,-37.54499816894531 C-30.02899932861328,-27.702999114990234 -22.32200050354004,-16.069000244140625 -22.32200050354004,-16.069000244140625 C-22.32200050354004,-16.069000244140625 -39.48099899291992,-17.555999755859375 -42.680999755859375,-0.8169999718666077 C-45.880001068115234,15.92300033569336 -34.68299865722656,19.413000106811523 -34.68299865722656,19.413000106811523 C-34.68299865722656,19.413000106811523 -48.35200119018555,29.302000045776367 -44.71699905395508,38.02799987792969 C-41.08100128173828,46.75299835205078 -35.5620002746582,49.861000061035156 -35.5620002746582,49.861000061035156z"/></g><g opacity="1" transform="matrix(1,0,0,1,938.4039916992188,314.947998046875)"><path fill="rgb(28,3,17)" fill-opacity="1" d=" M-4.361999988555908,-5.675000190734863 C-4.361999988555908,-5.675000190734863 4.361999988555908,0.17100000381469727 4.361999988555908,0.17100000381469727 C4.361999988555908,0.17100000381469727 3.687999963760376,5.675000190734863 3.687999963760376,5.675000190734863 C3.687999963760376,5.675000190734863 -4.361999988555908,-1.8940000534057617 -4.361999988555908,-5.675000190734863z"/><path stroke-linecap="round" stroke-linejoin="round" fill-opacity="0" stroke="rgb(26,26,26)" stroke-opacity="1" stroke-width="1" d=" M-4.361999988555908,-5.675000190734863 C-4.361999988555908,-5.675000190734863 4.361999988555908,0.17100000381469727 4.361999988555908,0.17100000381469727 C4.361999988555908,0.17100000381469727 3.687999963760376,5.675000190734863 3.687999963760376,5.675000190734863 C3.687999963760376,5.675000190734863 -4.361999988555908,-1.8940000534057617 -4.361999988555908,-5.675000190734863z"/></g></g><g transform="matrix(1,0,0,1,600,600)" opacity="1" style="display: block;"/></g></g></svg>